SeN-CL.ufo
<glyph name="exclam" format="2">
  <advance width="282"/>
  <unicode hex="0021"/>
  <outline>
    <contour>
      <point x="173" y="743" type="line"/>
      <point x="109" y="743" type="line"/>
      <point x="115" y="218" type="line"/>
      <point x="167" y="218" type="line"/>
    </contour>
    <contour>
      <point x="184" y="-26" type="line"/>
      <point x="184" y="65" type="line"/>
      <point x="100" y="65" type="line"/>
      <point x="100" y="-26" type="line"/>
    </contour>
  </outline>
</glyph>
<glyph name="dollar" format="2">
  <advance width="485"/>
  <unicode hex="0024"/>
  <outline>
    <contour>
      <point x="258" y="46" type="curve"/>
      <point x="258" y="331" type="line"/>
      <point x="286" y="317" type="line" smooth="yes"/>
      <point x="305" y="305"/>
      <point x="320" y="293"/>
      <point x="332" y="280" type="curve" smooth="yes"/>
      <point x="342" y="268"/>
      <point x="350" y="255"/>
      <point x="358" y="239" type="curve" smooth="yes"/>
      <point x="364" y="223"/>
      <point x="368" y="204"/>
      <point x="368" y="184" type="curve" smooth="yes"/>
      <point x="368" y="160"/>
      <point x="364" y="139"/>
      <point x="357" y="122" type="curve" smooth="yes"/>
      <point x="349" y="104"/>
      <point x="339" y="90"/>
      <point x="328" y="78" type="curve" smooth="yes"/>
      <point x="316" y="66"/>
      <point x="302" y="57"/>
      <point x="288" y="53" type="curve" smooth="yes"/>
      <point x="278" y="49"/>
      <point x="268" y="47"/>
    </contour>
    <contour>
      <point x="219" y="347" type="curve"/>
      <point x="219" y="46" type="line"/>
      <point x="191" y="49"/>
      <point x="169" y="60"/>
      <point x="153" y="78" type="curve" smooth="yes"/>
      <point x="131" y="99"/>
      <point x="121" y="122"/>
      <point x="121" y="148" type="curve"/>
      <point x="55" y="148" type="line"/>
      <point x="58" y="111"/>
      <point x="74" y="79"/>
      <point x="103" y="51" type="curve" smooth="yes"/>
      <point x="128" y="26"/>
      <point x="167" y="12"/>
      <point x="219" y="10" type="curve"/>
      <point x="219" y="-75" type="line"/>
      <point x="258" y="-75" type="line"/>
      <point x="258" y="10" type="line"/>
      <point x="277" y="11"/>
      <point x="296" y="15"/>
      <point x="314" y="21" type="curve" smooth="yes"/>
      <point x="337" y="29"/>
      <point x="357" y="40"/>
      <point x="374" y="54" type="curve" smooth="yes"/>
      <point x="388" y="68"/>
      <point x="401" y="86"/>
      <point x="412" y="109" type="curve" smooth="yes"/>
      <point x="422" y="131"/>
      <point x="428" y="158"/>
      <point x="428" y="191" type="curve" smooth="yes"/>
      <point x="428" y="224"/>
      <point x="421" y="251"/>
      <point x="409" y="273" type="curve" smooth="yes"/>
      <point x="396" y="294"/>
      <point x="381" y="311"/>
      <point x="364" y="325" type="curve" smooth="yes"/>
      <point x="346" y="339"/>
      <point x="323" y="352"/>
      <point x="295" y="364" type="curve" smooth="yes"/>
      <point x="280" y="370"/>
      <point x="268" y="375"/>
      <point x="258" y="379" type="curve"/>
      <point x="258" y="662" type="line"/>
      <point x="284" y="658"/>
      <point x="306" y="648"/>
      <point x="322" y="630" type="curve" smooth="yes"/>
      <point x="341" y="607"/>
      <point x="351" y="585"/>
      <point x="352" y="563" type="curve"/>
      <point x="417" y="563" type="line"/>
      <point x="417" y="575"/>
      <point x="412" y="589"/>
      <point x="404" y="607" type="curve" smooth="yes"/>
      <point x="394" y="624"/>
      <point x="382" y="639"/>
      <point x="368" y="653" type="curve" smooth="yes"/>
      <point x="354" y="665"/>
      <point x="337" y="676"/>
      <point x="317" y="686" type="curve" smooth="yes"/>
      <point x="301" y="692"/>
      <point x="281" y="696"/>
      <point x="258" y="698" type="curve"/>
      <point x="258" y="773" type="line"/>
      <point x="219" y="773" type="line"/>
      <point x="219" y="698" type="line"/>
      <point x="202" y="696"/>
      <point x="186" y="693"/>
      <point x="171" y="687" type="curve" smooth="yes"/>
      <point x="148" y="679"/>
      <point x="129" y="668"/>
      <point x="115" y="656" type="curve" smooth="yes"/>
      <point x="99" y="642"/>
      <point x="87" y="626"/>
      <point x="78" y="606" type="curve" smooth="yes"/>
      <point x="68" y="586"/>
      <point x="63" y="561"/>
      <point x="63" y="533" type="curve" smooth="yes"/>
      <point x="63" y="498"/>
      <point x="68" y="470"/>
      <point x="79" y="449" type="curve" smooth="yes"/>
      <point x="89" y="427"/>
      <point x="102" y="409"/>
      <point x="118" y="396" type="curve" smooth="yes"/>
      <point x="134" y="383"/>
      <point x="155" y="372"/>
      <point x="181" y="362" type="curve" smooth="yes"/>
      <point x="195" y="356"/>
      <point x="208" y="351"/>
    </contour>
    <contour>
      <point x="219" y="662" type="curve"/>
      <point x="219" y="394" type="line"/>
      <point x="212" y="397"/>
      <point x="204" y="401"/>
      <point x="194" y="406" type="curve" smooth="yes"/>
      <point x="174" y="415"/>
      <point x="159" y="425"/>
      <point x="151" y="437" type="curve" smooth="yes"/>
      <point x="142" y="447"/>
      <point x="135" y="461"/>
      <point x="130" y="478" type="curve" smooth="yes"/>
      <point x="124" y="494"/>
      <point x="122" y="514"/>
      <point x="122" y="537" type="curve" smooth="yes"/>
      <point x="122" y="558"/>
      <point x="125" y="577"/>
      <point x="131" y="593" type="curve" smooth="yes"/>
      <point x="137" y="608"/>
      <point x="145" y="621"/>
      <point x="155" y="633" type="curve" smooth="yes"/>
      <point x="165" y="643"/>
      <point x="177" y="650"/>
      <point x="190" y="656" type="curve" smooth="yes"/>
      <point x="198" y="658"/>
      <point x="207" y="660"/>
    </contour>
  </outline>
</glyph>
<glyph name="plus" format="2">
  <advance width="516"/>
  <unicode hex="002B"/>
  <outline>
    <contour>
      <point x="463" y="337" type="line"/>
      <point x="463" y="386" type="line"/>
      <point x="284" y="386" type="line"/>
      <point x="284" y="588" type="line"/>
      <point x="232" y="588" type="line"/>
      <point x="232" y="386" type="line"/>
      <point x="54" y="386" type="line"/>
      <point x="54" y="337" type="line"/>
      <point x="232" y="337" type="line"/>
      <point x="232" y="136" type="line"/>
      <point x="284" y="136" type="line"/>
      <point x="284" y="337" type="line"/>
    </contour>
  </outline>
</glyph>
<glyph name="comma" format="2">
  <advance width="224"/>
  <unicode hex="002C"/>
  <outline>
    <contour>
      <point x="157" y="73" type="line"/>
      <point x="79" y="73" type="line"/>
      <point x="60" y="-135" type="line"/>
      <point x="111" y="-135" type="line"/>
    </contour>
  </outline>
</glyph>
<glyph name="hyphen" format="2">
  <advance width="379"/>
  <unicode hex="002D"/>
  <outline>
    <contour>
      <point x="326" y="333" type="line"/>
      <point x="326" y="389" type="line"/>
      <point x="51" y="389" type="line"/>
      <point x="51" y="333" type="line"/>
    </contour>
  </outline>
</glyph>
<glyph name="six" format="2">
  <advance width="490"/>
  <unicode hex="0036"/>
  <outline>
    <contour>
      <point x="80" y="126" type="curve" smooth="yes"/>
      <point x="88" y="98"/>
      <point x="100" y="74"/>
      <point x="116" y="55" type="curve" smooth="yes"/>
      <point x="132" y="36"/>
      <point x="153" y="22"/>
      <point x="178" y="13" type="curve" smooth="yes"/>
      <point x="202" y="3"/>
      <point x="226" y="-1"/>
      <point x="250" y="-1" type="curve" smooth="yes"/>
      <point x="274" y="-1"/>
      <point x="299" y="3"/>
      <point x="324" y="13" type="curve" smooth="yes"/>
      <point x="348" y="21"/>
      <point x="368" y="35"/>
      <point x="385" y="54" type="curve" smooth="yes"/>
      <point x="401" y="73"/>
      <point x="413" y="97"/>
      <point x="422" y="125" type="curve" smooth="yes"/>
      <point x="430" y="153"/>
      <point x="434" y="182"/>
      <point x="434" y="212" type="curve" smooth="yes"/>
      <point x="434" y="242"/>
      <point x="430" y="272"/>
      <point x="422" y="301" type="curve" smooth="yes"/>
      <point x="414" y="329"/>
      <point x="402" y="352"/>
      <point x="386" y="371" type="curve" smooth="yes"/>
      <point x="369" y="389"/>
      <point x="350" y="403"/>
      <point x="329" y="413" type="curve" smooth="yes"/>
      <point x="307" y="422"/>
      <point x="281" y="427"/>
      <point x="250" y="427" type="curve" smooth="yes"/>
      <point x="224" y="427"/>
      <point x="200" y="420"/>
      <point x="177" y="406" type="curve" smooth="yes"/>
      <point x="152" y="391"/>
      <point x="132" y="371"/>
      <point x="116" y="346" type="curve"/>
      <point x="116" y="391" type="line" smooth="yes"/>
      <point x="116" y="425"/>
      <point x="118" y="456"/>
      <point x="122" y="484" type="curve" smooth="yes"/>
      <point x="126" y="512"/>
      <point x="133" y="539"/>
      <point x="143" y="565" type="curve" smooth="yes"/>
      <point x="152" y="591"/>
      <point x="166" y="613"/>
      <point x="185" y="631" type="curve" smooth="yes"/>
      <point x="203" y="648"/>
      <point x="225" y="657"/>
      <point x="250" y="657" type="curve" smooth="yes"/>
      <point x="268" y="657"/>
      <point x="284" y="653"/>
      <point x="298" y="647" type="curve" smooth="yes"/>
      <point x="311" y="639"/>
      <point x="322" y="631"/>
      <point x="330" y="621" type="curve" smooth="yes"/>
      <point x="338" y="611"/>
      <point x="343" y="599"/>
      <point x="347" y="585" type="curve" smooth="yes"/>
      <point x="350" y="570"/>
      <point x="352" y="561"/>
      <point x="352" y="559" type="curve"/>
      <point x="422" y="559" type="line"/>
      <point x="422" y="569"/>
      <point x="418" y="584"/>
      <point x="412" y="604" type="curve" smooth="yes"/>
      <point x="404" y="623"/>
      <point x="394" y="639"/>
      <point x="380" y="653" type="curve" smooth="yes"/>
      <point x="366" y="667"/>
      <point x="348" y="678"/>
      <point x="326" y="688" type="curve" smooth="yes"/>
      <point x="304" y="696"/>
      <point x="279" y="701"/>
      <point x="252" y="701" type="curve" smooth="yes"/>
      <point x="212" y="701"/>
      <point x="179" y="691"/>
      <point x="154" y="671" type="curve" smooth="yes"/>
      <point x="128" y="651"/>
      <point x="107" y="624"/>
      <point x="93" y="592" type="curve" smooth="yes"/>
      <point x="79" y="559"/>
      <point x="70" y="523"/>
      <point x="65" y="485" type="curve" smooth="yes"/>
      <point x="59" y="445"/>
      <point x="57" y="405"/>
      <point x="57" y="364" type="curve" smooth="yes"/>
      <point x="57" y="304"/>
      <point x="59" y="255"/>
      <point x="64" y="216" type="curve" smooth="yes"/>
      <point x="68" y="176"/>
      <point x="73" y="146"/>
    </contour>
    <contour>
      <point x="375" y="213" type="curve" smooth="yes"/>
      <point x="375" y="190"/>
      <point x="372" y="168"/>
      <point x="367" y="148" type="curve" smooth="yes"/>
      <point x="361" y="127"/>
      <point x="353" y="109"/>
      <point x="343" y="93" type="curve" smooth="yes"/>
      <point x="331" y="77"/>
      <point x="317" y="65"/>
      <point x="301" y="57" type="curve" smooth="yes"/>
      <point x="285" y="48"/>
      <point x="268" y="44"/>
      <point x="251" y="44" type="curve" smooth="yes"/>
      <point x="233" y="44"/>
      <point x="217" y="48"/>
      <point x="201" y="57" type="curve" smooth="yes"/>
      <point x="185" y="65"/>
      <point x="171" y="77"/>
      <point x="159" y="93" type="curve" smooth="yes"/>
      <point x="149" y="109"/>
      <point x="141" y="127"/>
      <point x="136" y="148" type="curve" smooth="yes"/>
      <point x="130" y="168"/>
      <point x="127" y="190"/>
      <point x="127" y="213" type="curve" smooth="yes"/>
      <point x="127" y="235"/>
      <point x="130" y="257"/>
      <point x="136" y="278" type="curve" smooth="yes"/>
      <point x="141" y="298"/>
      <point x="149" y="317"/>
      <point x="159" y="333" type="curve" smooth="yes"/>
      <point x="171" y="348"/>
      <point x="185" y="360"/>
      <point x="201" y="369" type="curve" smooth="yes"/>
      <point x="217" y="377"/>
      <point x="233" y="382"/>
      <point x="251" y="382" type="curve" smooth="yes"/>
      <point x="268" y="382"/>
      <point x="285" y="377"/>
      <point x="301" y="369" type="curve" smooth="yes"/>
      <point x="317" y="360"/>
      <point x="331" y="348"/>
      <point x="343" y="333" type="curve" smooth="yes"/>
      <point x="353" y="317"/>
      <point x="361" y="298"/>
      <point x="367" y="278" type="curve" smooth="yes"/>
      <point x="372" y="257"/>
      <point x="375" y="235"/>
    </contour>
  </outline>
</glyph>
<glyph name="nine" format="2">
  <advance width="490"/>
  <unicode hex="0039"/>
  <outline>
    <contour>
      <point x="410" y="574" type="curve" smooth="yes"/>
      <point x="401" y="602"/>
      <point x="389" y="625"/>
      <point x="374" y="645" type="curve" smooth="yes"/>
      <point x="357" y="663"/>
      <point x="337" y="677"/>
      <point x="315" y="687" type="curve" smooth="yes"/>
      <point x="292" y="696"/>
      <point x="267" y="701"/>
      <point x="240" y="701" type="curve" smooth="yes"/>
      <point x="212" y="701"/>
      <point x="186" y="696"/>
      <point x="164" y="688" type="curve" smooth="yes"/>
      <point x="141" y="678"/>
      <point x="121" y="664"/>
      <point x="105" y="646" type="curve" smooth="yes"/>
      <point x="89" y="626"/>
      <point x="77" y="603"/>
      <point x="69" y="575" type="curve" smooth="yes"/>
      <point x="60" y="547"/>
      <point x="56" y="518"/>
      <point x="56" y="488" type="curve" smooth="yes"/>
      <point x="56" y="457"/>
      <point x="60" y="428"/>
      <point x="68" y="400" type="curve" smooth="yes"/>
      <point x="76" y="371"/>
      <point x="88" y="347"/>
      <point x="104" y="329" type="curve" smooth="yes"/>
      <point x="120" y="310"/>
      <point x="139" y="296"/>
      <point x="161" y="287" type="curve" smooth="yes"/>
      <point x="182" y="277"/>
      <point x="208" y="273"/>
      <point x="240" y="273" type="curve" smooth="yes"/>
      <point x="265" y="273"/>
      <point x="289" y="280"/>
      <point x="313" y="294" type="curve" smooth="yes"/>
      <point x="337" y="308"/>
      <point x="358" y="328"/>
      <point x="374" y="354" type="curve"/>
      <point x="374" y="309" type="line" smooth="yes"/>
      <point x="374" y="275"/>
      <point x="372" y="244"/>
      <point x="368" y="216" type="curve" smooth="yes"/>
      <point x="364" y="188"/>
      <point x="357" y="161"/>
      <point x="347" y="135" type="curve" smooth="yes"/>
      <point x="337" y="108"/>
      <point x="323" y="86"/>
      <point x="305" y="69" type="curve" smooth="yes"/>
      <point x="286" y="51"/>
      <point x="264" y="43"/>
      <point x="240" y="43" type="curve" smooth="yes"/>
      <point x="222" y="43"/>
      <point x="206" y="46"/>
      <point x="193" y="54" type="curve" smooth="yes"/>
      <point x="179" y="60"/>
      <point x="168" y="69"/>
      <point x="160" y="79" type="curve" smooth="yes"/>
      <point x="152" y="89"/>
      <point x="146" y="101"/>
      <point x="143" y="116" type="curve" smooth="yes"/>
      <point x="139" y="130"/>
      <point x="138" y="138"/>
      <point x="138" y="141" type="curve"/>
      <point x="68" y="141" type="line"/>
      <point x="68" y="130"/>
      <point x="71" y="115"/>
      <point x="79" y="96" type="curve" smooth="yes"/>
      <point x="85" y="76"/>
      <point x="96" y="60"/>
      <point x="110" y="47" type="curve" smooth="yes"/>
      <point x="124" y="33"/>
      <point x="142" y="21"/>
      <point x="164" y="13" type="curve" smooth="yes"/>
      <point x="186" y="3"/>
      <point x="210" y="-1"/>
      <point x="238" y="-1" type="curve" smooth="yes"/>
      <point x="278" y="-1"/>
      <point x="311" y="9"/>
      <point x="337" y="29" type="curve" smooth="yes"/>
      <point x="362" y="49"/>
      <point x="382" y="75"/>
      <point x="397" y="108" type="curve" smooth="yes"/>
      <point x="410" y="140"/>
      <point x="419" y="176"/>
      <point x="425" y="216" type="curve" smooth="yes"/>
      <point x="430" y="254"/>
      <point x="433" y="294"/>
      <point x="433" y="336" type="curve" smooth="yes"/>
      <point x="433" y="395"/>
      <point x="431" y="444"/>
      <point x="427" y="484" type="curve" smooth="yes"/>
      <point x="422" y="523"/>
      <point x="416" y="553"/>
    </contour>
    <contour>
      <point x="363" y="487" type="curve" smooth="yes"/>
      <point x="363" y="464"/>
      <point x="360" y="442"/>
      <point x="355" y="421" type="curve" smooth="yes"/>
      <point x="349" y="399"/>
      <point x="340" y="380"/>
      <point x="329" y="365" type="curve" smooth="yes"/>
      <point x="317" y="349"/>
      <point x="304" y="338"/>
      <point x="288" y="330" type="curve" smooth="yes"/>
      <point x="272" y="322"/>
      <point x="255" y="318"/>
      <point x="239" y="318" type="curve" smooth="yes"/>
      <point x="222" y="318"/>
      <point x="206" y="322"/>
      <point x="190" y="330" type="curve" smooth="yes"/>
      <point x="174" y="338"/>
      <point x="160" y="349"/>
      <point x="149" y="365" type="curve" smooth="yes"/>
      <point x="137" y="380"/>
      <point x="129" y="399"/>
      <point x="124" y="421" type="curve" smooth="yes"/>
      <point x="118" y="442"/>
      <point x="115" y="464"/>
      <point x="115" y="487" type="curve" smooth="yes"/>
      <point x="115" y="509"/>
      <point x="118" y="532"/>
      <point x="124" y="554" type="curve" smooth="yes"/>
      <point x="129" y="575"/>
      <point x="137" y="593"/>
      <point x="149" y="609" type="curve" smooth="yes"/>
      <point x="160" y="624"/>
      <point x="174" y="636"/>
      <point x="190" y="644" type="curve" smooth="yes"/>
      <point x="206" y="652"/>
      <point x="222" y="656"/>
      <point x="239" y="656" type="curve" smooth="yes"/>
      <point x="255" y="656"/>
      <point x="272" y="652"/>
      <point x="288" y="644" type="curve" smooth="yes"/>
      <point x="304" y="636"/>
      <point x="317" y="624"/>
      <point x="329" y="609" type="curve" smooth="yes"/>
      <point x="340" y="593"/>
      <point x="349" y="575"/>
      <point x="355" y="554" type="curve" smooth="yes"/>
      <point x="360" y="532"/>
      <point x="363" y="509"/>
    </contour>
  </outline>
</glyph>
<glyph name="greater" format="2">
  <advance width="524"/>
  <unicode hex="003E"/>
  <outline>
    <contour>
      <point x="435" y="341" type="line"/>
      <point x="435" y="384" type="line"/>
      <point x="64" y="720" type="line"/>
      <point x="64" y="663" type="line"/>
      <point x="394" y="362" type="line"/>
      <point x="64" y="62" type="line"/>
      <point x="64" y="5" type="line"/>
    </contour>
  </outline>
</glyph>
<glyph name="question" format="2">
  <advance width="415"/>
  <unicode hex="003F"/>
  <outline>
    <contour>
      <point x="374" y="570" type="curve" smooth="yes"/>
      <point x="374" y="598"/>
      <point x="368" y="623"/>
      <point x="357" y="645" type="curve" smooth="yes"/>
      <point x="345" y="665"/>
      <point x="331" y="682"/>
      <point x="313" y="696" type="curve" smooth="yes"/>
      <point x="295" y="709"/>
      <point x="274" y="719"/>
      <point x="252" y="725" type="curve" smooth="yes"/>
      <point x="229" y="731"/>
      <point x="207" y="734"/>
      <point x="187" y="734" type="curve" smooth="yes"/>
      <point x="173" y="734"/>
      <point x="159" y="733"/>
      <point x="145" y="731" type="curve" smooth="yes"/>
      <point x="131" y="728"/>
      <point x="118" y="725"/>
      <point x="107" y="723" type="curve" smooth="yes"/>
      <point x="95" y="720"/>
      <point x="82" y="717"/>
      <point x="70" y="714" type="curve" smooth="yes"/>
      <point x="56" y="710"/>
      <point x="48" y="707"/>
      <point x="45" y="706" type="curve" smooth="yes"/>
      <point x="45" y="647" type="line"/>
      <point x="45" y="647"/>
      <point x="52" y="649"/>
      <point x="65" y="655" type="curve" smooth="yes"/>
      <point x="77" y="660"/>
      <point x="91" y="665"/>
      <point x="105" y="669" type="curve" smooth="yes"/>
      <point x="118" y="673"/>
      <point x="131" y="676"/>
      <point x="145" y="679" type="curve" smooth="yes"/>
      <point x="157" y="681"/>
      <point x="171" y="682"/>
      <point x="185" y="682" type="curve" smooth="yes"/>
      <point x="201" y="682"/>
      <point x="216" y="679"/>
      <point x="232" y="674" type="curve" smooth="yes"/>
      <point x="247" y="668"/>
      <point x="261" y="660"/>
      <point x="273" y="650" type="curve" smooth="yes"/>
      <point x="284" y="640"/>
      <point x="293" y="627"/>
      <point x="301" y="613" type="curve" smooth="yes"/>
      <point x="308" y="598"/>
      <point x="312" y="583"/>
      <point x="312" y="567" type="curve" smooth="yes"/>
      <point x="312" y="550"/>
      <point x="308" y="533"/>
      <point x="300" y="516" type="curve" smooth="yes"/>
      <point x="291" y="498"/>
      <point x="281" y="481"/>
      <point x="270" y="467" type="curve" smooth="yes"/>
      <point x="258" y="451"/>
      <point x="246" y="437"/>
      <point x="234" y="424" type="curve" smooth="yes"/>
      <point x="221" y="410"/>
      <point x="210" y="399"/>
      <point x="201" y="389" type="curve" smooth="yes"/>
      <point x="182" y="367"/>
      <point x="168" y="346"/>
      <point x="158" y="328" type="curve" smooth="yes"/>
      <point x="147" y="308"/>
      <point x="142" y="280"/>
      <point x="142" y="243" type="curve" smooth="yes"/>
      <point x="142" y="186" type="line"/>
      <point x="197" y="186" type="line"/>
      <point x="197" y="223" type="line" smooth="yes"/>
      <point x="197" y="243"/>
      <point x="198" y="259"/>
      <point x="201" y="271" type="curve" smooth="yes"/>
      <point x="203" y="283"/>
      <point x="207" y="294"/>
      <point x="213" y="305" type="curve" smooth="yes"/>
      <point x="217" y="315"/>
      <point x="223" y="325"/>
      <point x="231" y="334" type="curve" smooth="yes"/>
      <point x="237" y="342"/>
      <point x="245" y="352"/>
      <point x="253" y="363" type="curve" smooth="yes"/>
      <point x="259" y="371"/>
      <point x="269" y="382"/>
      <point x="283" y="397" type="curve" smooth="yes"/>
      <point x="296" y="411"/>
      <point x="310" y="427"/>
      <point x="324" y="445" type="curve" smooth="yes"/>
      <point x="336" y="461"/>
      <point x="348" y="481"/>
      <point x="359" y="503" type="curve" smooth="yes"/>
      <point x="369" y="525"/>
      <point x="374" y="547"/>
    </contour>
    <contour>
      <point x="213" y="-26" type="line"/>
      <point x="213" y="65" type="line"/>
      <point x="129" y="65" type="line"/>
      <point x="129" y="-26" type="line"/>
    </contour>
  </outline>
</glyph>
<glyph name="L" format="2">
  <advance width="450"/>
  <unicode hex="004C"/>
  <outline>
    <contour>
      <point x="424" y="14" type="line"/>
      <point x="424" y="67" type="line"/>
      <point x="137" y="67" type="line"/>
      <point x="137" y="699" type="line"/>
      <point x="77" y="699" type="line"/>
      <point x="77" y="14" type="line"/>
    </contour>
  </outline>
</glyph>
<glyph name="T" format="2">
  <advance width="530"/>
  <unicode hex="0054"/>
  <outline>
    <contour>
      <point x="495" y="646" type="line"/>
      <point x="495" y="699" type="line"/>
      <point x="35" y="699" type="line"/>
      <point x="35" y="646" type="line"/>
      <point x="235" y="646" type="line"/>
      <point x="235" y="14" type="line"/>
      <point x="295" y="14" type="line"/>
      <point x="295" y="646" type="line"/>
    </contour>
  </outline>
</glyph>
<glyph name="Y" format="2">
  <advance width="540"/>
  <unicode hex="0059"/>
  <outline>
    <contour>
      <point x="270" y="383" type="line"/>
      <point x="103" y="699" type="line"/>
      <point x="39" y="699" type="line"/>
      <point x="240" y="328" type="line"/>
      <point x="240" y="14" type="line"/>
      <point x="300" y="14" type="line"/>
      <point x="300" y="328" type="line"/>
      <point x="501" y="699" type="line"/>
      <point x="436" y="699" type="line"/>
    </contour>
  </outline>
</glyph>
<glyph name="backslash" format="2">
  <advance width="890"/>
  <unicode hex="005C"/>
  <outline>
    <contour>
      <point x="835" y="363" type="line"/>
      <point x="835" y="402" type="line"/>
      <point x="711" y="402" type="line"/>
      <point x="760" y="674" type="line"/>
      <point x="710" y="674" type="line"/>
      <point x="663" y="402" type="line"/>
      <point x="534" y="402" type="line"/>
      <point x="477" y="674" type="line"/>
      <point x="418" y="674" type="line"/>
      <point x="361" y="402" type="line"/>
      <point x="232" y="402" type="line"/>
      <point x="185" y="674" type="line"/>
      <point x="135" y="674" type="line"/>
      <point x="184" y="402" type="line"/>
      <point x="61" y="402" type="line"/>
      <point x="61" y="363" type="line"/>
      <point x="192" y="363" type="line"/>
      <point x="255" y="14" type="line"/>
      <point x="321" y="14" type="line"/>
      <point x="394" y="363" type="line"/>
      <point x="500" y="363" type="line"/>
      <point x="573" y="14" type="line"/>
      <point x="640" y="14" type="line"/>
      <point x="703" y="363" type="line"/>
    </contour>
    <contour>
      <point x="656" y="363" type="line"/>
      <point x="605" y="64" type="line"/>
      <point x="542" y="363" type="line"/>
    </contour>
    <contour>
      <point x="353" y="363" type="line"/>
      <point x="290" y="64" type="line"/>
      <point x="239" y="363" type="line"/>
    </contour>
    <contour>
      <point x="402" y="402" type="line"/>
      <point x="447" y="615" type="line"/>
      <point x="492" y="402" type="line"/>
    </contour>
  </outline>
</glyph>
<glyph name="grave" format="2">
  <advance width="274"/>
  <unicode hex="0060"/>
  <outline>
    <contour>
      <point x="184" y="551" type="line"/>
      <point x="133" y="705" type="line"/>
      <point x="66" y="705" type="line"/>
      <point x="137" y="551" type="line"/>
    </contour>
  </outline>
</glyph>
<glyph name="e" format="2">
  <advance width="472"/>
  <unicode hex="0065"/>
  <outline>
    <contour>
      <point x="109" y="281" type="line"/>
      <point x="111" y="333"/>
      <point x="125" y="374"/>
      <point x="149" y="405" type="curve" smooth="yes"/>
      <point x="175" y="439"/>
      <point x="209" y="457"/>
      <point x="250" y="457" type="curve" smooth="yes"/>
      <point x="270" y="457"/>
      <point x="288" y="452"/>
      <point x="304" y="443" type="curve" smooth="yes"/>
      <point x="320" y="433"/>
      <point x="332" y="420"/>
      <point x="340" y="404" type="curve" smooth="yes"/>
      <point x="354" y="375"/>
      <point x="361" y="334"/>
      <point x="361" y="281" type="curve"/>
    </contour>
    <contour>
      <point x="110" y="236" type="curve"/>
      <point x="421" y="236" type="line"/>
      <point x="421" y="286" type="line" smooth="yes"/>
      <point x="421" y="354"/>
      <point x="408" y="405"/>
      <point x="383" y="440" type="curve" smooth="yes"/>
      <point x="369" y="458"/>
      <point x="351" y="473"/>
      <point x="327" y="485" type="curve" smooth="yes"/>
      <point x="302" y="496"/>
      <point x="276" y="502"/>
      <point x="250" y="502" type="curve" smooth="yes"/>
      <point x="216" y="502"/>
      <point x="187" y="496"/>
      <point x="163" y="484" type="curve" smooth="yes"/>
      <point x="137" y="472"/>
      <point x="116" y="455"/>
      <point x="100" y="435" type="curve" smooth="yes"/>
      <point x="82" y="413"/>
      <point x="69" y="388"/>
      <point x="61" y="360" type="curve" smooth="yes"/>
      <point x="51" y="330"/>
      <point x="47" y="298"/>
      <point x="47" y="263" type="curve" smooth="yes"/>
      <point x="47" y="219"/>
      <point x="53" y="181"/>
      <point x="66" y="149" type="curve" smooth="yes"/>
      <point x="78" y="116"/>
      <point x="93" y="89"/>
      <point x="112" y="68" type="curve" smooth="yes"/>
      <point x="126" y="51"/>
      <point x="146" y="37"/>
      <point x="170" y="26" type="curve" smooth="yes"/>
      <point x="194" y="14"/>
      <point x="218" y="6"/>
      <point x="244" y="4" type="curve" smooth="yes"/>
      <point x="273" y="0"/>
      <point x="302" y="1"/>
      <point x="331" y="7" type="curve" smooth="yes"/>
      <point x="359" y="12"/>
      <point x="384" y="21"/>
      <point x="407" y="35" type="curve"/>
      <point x="407" y="77" type="line"/>
      <point x="390" y="67"/>
      <point x="370" y="60"/>
      <point x="348" y="56" type="curve" smooth="yes"/>
      <point x="325" y="51"/>
      <point x="306" y="49"/>
      <point x="291" y="49" type="curve" smooth="yes"/>
      <point x="271" y="49"/>
      <point x="253" y="51"/>
      <point x="238" y="56" type="curve" smooth="yes"/>
      <point x="222" y="60"/>
      <point x="211" y="64"/>
      <point x="203" y="69" type="curve" smooth="yes"/>
      <point x="181" y="82"/>
      <point x="164" y="97"/>
      <point x="152" y="115" type="curve" smooth="yes"/>
      <point x="139" y="132"/>
      <point x="129" y="150"/>
      <point x="123" y="169" type="curve" smooth="yes"/>
      <point x="117" y="185"/>
      <point x="114" y="201"/>
      <point x="112" y="217" type="curve" smooth="yes"/>
      <point x="111" y="223"/>
      <point x="110" y="229"/>
    </contour>
  </outline>
</glyph>
<glyph name="y" format="2">
  <advance width="455"/>
  <unicode hex="0079"/>
  <outline>
    <contour>
      <point x="361" y="490" type="line"/>
      <point x="233" y="110" type="line"/>
      <point x="94" y="490" type="line"/>
      <point x="35" y="490" type="line"/>
      <point x="207" y="35" type="line"/>
      <point x="142" y="-158" type="line"/>
      <point x="199" y="-158" type="line"/>
      <point x="420" y="490" type="line"/>
    </contour>
  </outline>
</glyph>
<glyph name="bar" format="2">
  <advance width="303"/>
  <unicode hex="007C"/>
  <outline>
    <contour>
      <point x="176" y="-112" type="line"/>
      <point x="176" y="771" type="line"/>
      <point x="127" y="771" type="line"/>
      <point x="127" y="-112" type="line"/>
    </contour>
  </outline>
</glyph>
<glyph name="asciitilde" format="2">
  <advance width="524"/>
  <unicode hex="007E"/>
  <outline>
    <contour>
      <point x="475" y="420" type="curve"/>
      <point x="428" y="420" type="line"/>
      <point x="428" y="388"/>
      <point x="422" y="362"/>
      <point x="410" y="342" type="curve" smooth="yes"/>
      <point x="398" y="321"/>
      <point x="379" y="311"/>
      <point x="355" y="311" type="curve" smooth="yes"/>
      <point x="341" y="311"/>
      <point x="328" y="316"/>
      <point x="316" y="327" type="curve" smooth="yes"/>
      <point x="304" y="337"/>
      <point x="289" y="352"/>
      <point x="271" y="373" type="curve" smooth="yes"/>
      <point x="253" y="395"/>
      <point x="236" y="411"/>
      <point x="220" y="421" type="curve" smooth="yes"/>
      <point x="203" y="429"/>
      <point x="185" y="434"/>
      <point x="165" y="434" type="curve" smooth="yes"/>
      <point x="132" y="434"/>
      <point x="105" y="419"/>
      <point x="83" y="391" type="curve" smooth="yes"/>
      <point x="61" y="361"/>
      <point x="50" y="323"/>
      <point x="50" y="275" type="curve"/>
      <point x="96" y="275" type="line"/>
      <point x="96" y="309"/>
      <point x="102" y="337"/>
      <point x="115" y="357" type="curve" smooth="yes"/>
      <point x="127" y="376"/>
      <point x="145" y="386"/>
      <point x="167" y="386" type="curve" smooth="yes"/>
      <point x="180" y="386"/>
      <point x="192" y="382"/>
      <point x="203" y="374" type="curve" smooth="yes"/>
      <point x="213" y="366"/>
      <point x="230" y="349"/>
      <point x="253" y="323" type="curve" smooth="yes"/>
      <point x="271" y="299"/>
      <point x="289" y="283"/>
      <point x="306" y="275" type="curve" smooth="yes"/>
      <point x="322" y="267"/>
      <point x="339" y="263"/>
      <point x="358" y="263" type="curve" smooth="yes"/>
      <point x="395" y="263"/>
      <point x="424" y="277"/>
      <point x="445" y="307" type="curve" smooth="yes"/>
      <point x="465" y="336"/>
      <point x="475" y="374"/>
    </contour>
  </outline>
</glyph>
<glyph name="uni0083" format="2">
  <advance width="940"/>
  <unicode hex="0083"/>
  <outline>
    <contour>
      <point x="464" y="786" type="curve" smooth="yes"/>
      <point x="401" y="786"/>
      <point x="342" y="774"/>
      <point x="288" y="751" type="curve" smooth="yes"/>
      <point x="233" y="727"/>
      <point x="186" y="694"/>
      <point x="146" y="654" type="curve" smooth="yes"/>
      <point x="105" y="614"/>
      <point x="73" y="567"/>
      <point x="51" y="514" type="curve" smooth="yes"/>
      <point x="27" y="460"/>
      <point x="16" y="404"/>
      <point x="16" y="346" type="curve" smooth="yes"/>
      <point x="16" y="283"/>
      <point x="27" y="224"/>
      <point x="51" y="170" type="curve" smooth="yes"/>
      <point x="73" y="115"/>
      <point x="104" y="68"/>
      <point x="144" y="28" type="curve" smooth="yes"/>
      <point x="183" y="-12"/>
      <point x="229" y="-44"/>
      <point x="283" y="-68" type="curve" smooth="yes"/>
      <point x="335" y="-90"/>
      <point x="391" y="-102"/>
      <point x="451" y="-102" type="curve" smooth="yes"/>
      <point x="513" y="-102"/>
      <point x="571" y="-90"/>
      <point x="627" y="-68" type="curve" smooth="yes"/>
      <point x="681" y="-44"/>
      <point x="729" y="-13"/>
      <point x="771" y="26" type="curve" smooth="yes"/>
      <point x="811" y="65"/>
      <point x="844" y="111"/>
      <point x="868" y="165" type="curve" smooth="yes"/>
      <point x="892" y="217"/>
      <point x="904" y="273"/>
      <point x="904" y="333" type="curve" smooth="yes"/>
      <point x="904" y="395"/>
      <point x="892" y="453"/>
      <point x="869" y="509" type="curve" smooth="yes"/>
      <point x="845" y="563"/>
      <point x="812" y="611"/>
      <point x="772" y="653" type="curve" smooth="yes"/>
      <point x="732" y="693"/>
      <point x="685" y="726"/>
      <point x="632" y="750" type="curve" smooth="yes"/>
      <point x="578" y="774"/>
      <point x="522" y="786"/>
    </contour>
    <contour>
      <point x="632" y="142" type="curve"/>
      <point x="632" y="204" type="line"/>
      <point x="612" y="192"/>
      <point x="591" y="183"/>
      <point x="570" y="179" type="curve" smooth="yes"/>
      <point x="548" y="174"/>
      <point x="528" y="172"/>
      <point x="510" y="172" type="curve" smooth="yes"/>
      <point x="491" y="172"/>
      <point x="474" y="173"/>
      <point x="460" y="177" type="curve" smooth="yes"/>
      <point x="444" y="179"/>
      <point x="433" y="183"/>
      <point x="427" y="187" type="curve" smooth="yes"/>
      <point x="407" y="197"/>
      <point x="392" y="210"/>
      <point x="381" y="224" type="curve" smooth="yes"/>
      <point x="369" y="238"/>
      <point x="361" y="252"/>
      <point x="355" y="267" type="curve" smooth="yes"/>
      <point x="348" y="282"/>
      <point x="344" y="297"/>
      <point x="343" y="313" type="curve" smooth="yes"/>
      <point x="341" y="327"/>
      <point x="340" y="341"/>
      <point x="340" y="355" type="curve" smooth="yes"/>
      <point x="340" y="400"/>
      <point x="352" y="435"/>
      <point x="377" y="460" type="curve" smooth="yes"/>
      <point x="401" y="484"/>
      <point x="432" y="496"/>
      <point x="470" y="496" type="curve" smooth="yes"/>
      <point x="485" y="496"/>
      <point x="501" y="494"/>
      <point x="517" y="490" type="curve" smooth="yes"/>
      <point x="532" y="485"/>
      <point x="543" y="479"/>
      <point x="549" y="471" type="curve" smooth="yes"/>
      <point x="555" y="463"/>
      <point x="560" y="454"/>
      <point x="562" y="444" type="curve" smooth="yes"/>
      <point x="564" y="433"/>
      <point x="565" y="422"/>
      <point x="565" y="410" type="curve"/>
      <point x="645" y="410" type="line"/>
      <point x="645" y="432"/>
      <point x="642" y="451"/>
      <point x="637" y="467" type="curve" smooth="yes"/>
      <point x="631" y="483"/>
      <point x="623" y="497"/>
      <point x="613" y="509" type="curve" smooth="yes"/>
      <point x="595" y="526"/>
      <point x="574" y="538"/>
      <point x="550" y="546" type="curve" smooth="yes"/>
      <point x="525" y="552"/>
      <point x="499" y="556"/>
      <point x="472" y="556" type="curve" smooth="yes"/>
      <point x="406" y="556"/>
      <point x="354" y="536"/>
      <point x="317" y="496" type="curve" smooth="yes"/>
      <point x="279" y="456"/>
      <point x="261" y="405"/>
      <point x="261" y="343" type="curve" smooth="yes"/>
      <point x="261" y="305"/>
      <point x="267" y="271"/>
      <point x="280" y="242" type="curve" smooth="yes"/>
      <point x="292" y="212"/>
      <point x="308" y="188"/>
      <point x="328" y="168" type="curve" smooth="yes"/>
      <point x="343" y="152"/>
      <point x="363" y="140"/>
      <point x="387" y="131" type="curve" smooth="yes"/>
      <point x="411" y="121"/>
      <point x="437" y="114"/>
      <point x="465" y="112" type="curve" smooth="yes"/>
      <point x="493" y="109"/>
      <point x="521" y="110"/>
      <point x="551" y="115" type="curve" smooth="yes"/>
      <point x="579" y="119"/>
      <point x="606" y="128"/>
    </contour>
    <contour>
      <point x="463" y="737" type="curve" smooth="yes"/>
      <point x="514" y="737"/>
      <point x="563" y="726"/>
      <point x="610" y="706" type="curve" smooth="yes"/>
      <point x="656" y="685"/>
      <point x="697" y="657"/>
      <point x="733" y="623" type="curve" smooth="yes"/>
      <point x="736" y="620" type="line" smooth="yes"/>
      <point x="770" y="583"/>
      <point x="798" y="540"/>
      <point x="820" y="491" type="curve" smooth="yes"/>
      <point x="840" y="441"/>
      <point x="851" y="389"/>
      <point x="851" y="334" type="curve" smooth="yes"/>
      <point x="851" y="280"/>
      <point x="840" y="229"/>
      <point x="820" y="183" type="curve" smooth="yes"/>
      <point x="799" y="135"/>
      <point x="771" y="94"/>
      <point x="735" y="60" type="curve" smooth="yes"/>
      <point x="699" y="24"/>
      <point x="656" y="-3"/>
      <point x="608" y="-23" type="curve" smooth="yes"/>
      <point x="559" y="-43"/>
      <point x="507" y="-53"/>
      <point x="452" y="-53" type="curve" smooth="yes"/>
      <point x="398" y="-53"/>
      <point x="348" y="-43"/>
      <point x="302" y="-23" type="curve" smooth="yes"/>
      <point x="255" y="-2"/>
      <point x="214" y="25"/>
      <point x="180" y="61" type="curve" smooth="yes"/>
      <point x="145" y="96"/>
      <point x="118" y="138"/>
      <point x="98" y="186" type="curve" smooth="yes"/>
      <point x="78" y="234"/>
      <point x="68" y="286"/>
      <point x="68" y="342" type="curve" smooth="yes"/>
      <point x="68" y="396"/>
      <point x="78" y="447"/>
      <point x="98" y="495" type="curve" smooth="yes"/>
      <point x="118" y="543"/>
      <point x="145" y="584"/>
      <point x="181" y="620" type="curve" smooth="yes"/>
      <point x="217" y="656"/>
      <point x="259" y="684"/>
      <point x="307" y="706" type="curve" smooth="yes"/>
      <point x="355" y="726"/>
      <point x="407" y="737"/>
    </contour>
  </outline>
</glyph>
<glyph name="exclamdown" format="2">
  <advance width="838"/>
  <unicode hex="00A1"/>
  <outline>
    <contour>
      <point x="455" y="-65" type="line"/>
      <point x="448" y="484" type="line"/>
      <point x="389" y="484" type="line"/>
      <point x="382" y="-65" type="line"/>
    </contour>
    <contour>
      <point x="462" y="728" type="line"/>
      <point x="376" y="728" type="line"/>
      <point x="376" y="638" type="line"/>
      <point x="462" y="638" type="line"/>
    </contour>
  </outline>
</glyph>
<glyph name="cent" format="2">
  <advance width="940"/>
  <unicode hex="00A2"/>
  <outline>
    <contour>
      <point x="657" y="98" type="line"/>
      <point x="634" y="91"/>
      <point x="612" y="87"/>
      <point x="592" y="85" type="curve" smooth="yes"/>
      <point x="571" y="83"/>
      <point x="557" y="82"/>
      <point x="549" y="82" type="curve" smooth="yes"/>
      <point x="528" y="82"/>
      <point x="505" y="84"/>
      <point x="479" y="88" type="curve" smooth="yes"/>
      <point x="452" y="91"/>
      <point x="433" y="96"/>
      <point x="421" y="103" type="curve"/>
      <point x="419" y="103" type="line"/>
      <point x="418" y="104" type="line"/>
      <point x="554" y="457" type="line"/>
      <point x="557" y="455"/>
      <point x="560" y="453"/>
      <point x="563" y="451" type="curve" smooth="yes"/>
      <point x="565" y="448"/>
      <point x="568" y="446"/>
      <point x="570" y="444" type="curve" smooth="yes"/>
      <point x="578" y="434"/>
      <point x="583" y="423"/>
      <point x="586" y="411" type="curve" smooth="yes"/>
      <point x="588" y="398"/>
      <point x="589" y="386"/>
      <point x="589" y="374" type="curve"/>
      <point x="673" y="374" type="line"/>
      <point x="673" y="396"/>
      <point x="670" y="417"/>
      <point x="664" y="435" type="curve" smooth="yes"/>
      <point x="657" y="452"/>
      <point x="648" y="467"/>
      <point x="636" y="481" type="curve" smooth="yes"/>
      <point x="628" y="489"/>
      <point x="619" y="496"/>
      <point x="609" y="503" type="curve" smooth="yes"/>
      <point x="599" y="509"/>
      <point x="588" y="515"/>
      <point x="578" y="519" type="curve"/>
      <point x="600" y="576" type="line"/>
      <point x="541" y="576" type="line"/>
      <point x="524" y="532" type="line"/>
      <point x="516" y="532"/>
      <point x="508" y="533"/>
      <point x="500" y="534" type="curve" smooth="yes"/>
      <point x="492" y="534"/>
      <point x="484" y="535"/>
      <point x="476" y="535" type="curve" smooth="yes"/>
      <point x="399" y="535"/>
      <point x="340" y="512"/>
      <point x="298" y="467" type="curve" smooth="yes"/>
      <point x="255" y="421"/>
      <point x="234" y="362"/>
      <point x="234" y="290" type="curve" smooth="yes"/>
      <point x="234" y="246"/>
      <point x="241" y="207"/>
      <point x="256" y="174" type="curve" smooth="yes"/>
      <point x="270" y="140"/>
      <point x="289" y="112"/>
      <point x="311" y="90" type="curve" smooth="yes"/>
      <point x="315" y="85"/>
      <point x="320" y="81"/>
      <point x="326" y="77" type="curve" smooth="yes"/>
      <point x="331" y="72"/>
      <point x="337" y="68"/>
      <point x="343" y="65" type="curve"/>
      <point x="306" y="-32" type="line"/>
      <point x="365" y="-32" type="line"/>
      <point x="394" y="42" type="line"/>
      <point x="413" y="36"/>
      <point x="434" y="31"/>
      <point x="457" y="28" type="curve" smooth="yes"/>
      <point x="479" y="24"/>
      <point x="503" y="23"/>
      <point x="527" y="23" type="curve" smooth="yes"/>
      <point x="550" y="23"/>
      <point x="573" y="24"/>
      <point x="595" y="28" type="curve" smooth="yes"/>
      <point x="617" y="31"/>
      <point x="637" y="36"/>
      <point x="657" y="42" type="curve"/>
    </contour>
    <contour>
      <point x="473" y="476" type="curve" smooth="yes"/>
      <point x="477" y="476"/>
      <point x="481" y="475"/>
      <point x="487" y="475" type="curve" smooth="yes"/>
      <point x="491" y="474"/>
      <point x="496" y="473"/>
      <point x="501" y="473" type="curve"/>
      <point x="372" y="140" type="line"/>
      <point x="347" y="164"/>
      <point x="331" y="192"/>
      <point x="325" y="222" type="curve" smooth="yes"/>
      <point x="317" y="252"/>
      <point x="314" y="279"/>
      <point x="314" y="305" type="curve" smooth="yes"/>
      <point x="314" y="359"/>
      <point x="329" y="401"/>
      <point x="359" y="431" type="curve" smooth="yes"/>
      <point x="389" y="461"/>
      <point x="427" y="476"/>
    </contour>
  </outline>
</glyph>
<glyph name="dieresis" format="2">
  <advance width="518"/>
  <unicode hex="00A8"/>
  <outline>
    <contour>
      <point x="169" y="772" type="line"/>
      <point x="91" y="772" type="line"/>
      <point x="91" y="688" type="line"/>
      <point x="169" y="688" type="line"/>
    </contour>
    <contour>
      <point x="428" y="772" type="line"/>
      <point x="350" y="772" type="line"/>
      <point x="350" y="688" type="line"/>
      <point x="428" y="688" type="line"/>
    </contour>
  </outline>
</glyph>
<glyph name="uni00AD" format="2">
  <advance width="367"/>
  <unicode hex="00AD"/>
  <outline>
    <contour>
      <point x="316" y="371" type="line"/>
      <point x="50" y="371" type="line"/>
      <point x="50" y="313" type="line"/>
      <point x="316" y="313" type="line"/>
    </contour>
  </outline>
</glyph>
<glyph name="registered" format="2">
  <advance width="838"/>
  <unicode hex="00AE"/>
  <outline>
    <contour>
      <point x="672" y="229" type="line"/>
      <point x="643" y="229" type="line" smooth="yes"/>
      <point x="636" y="229"/>
      <point x="632" y="228"/>
      <point x="631" y="227" type="curve" smooth="yes"/>
      <point x="629" y="225"/>
      <point x="628" y="222"/>
      <point x="626" y="220" type="curve" smooth="yes"/>
      <point x="625" y="216"/>
      <point x="623" y="211"/>
      <point x="621" y="205" type="curve" smooth="yes"/>
      <point x="618" y="198"/>
      <point x="613" y="191"/>
      <point x="607" y="184" type="curve" smooth="yes"/>
      <point x="601" y="176"/>
      <point x="593" y="171"/>
      <point x="584" y="167" type="curve" smooth="yes"/>
      <point x="574" y="162"/>
      <point x="566" y="160"/>
      <point x="560" y="160" type="curve" smooth="yes"/>
      <point x="269" y="160" type="line"/>
      <point x="273" y="166"/>
      <point x="289" y="180"/>
      <point x="319" y="203" type="curve" smooth="yes"/>
      <point x="348" y="225"/>
      <point x="395" y="247"/>
      <point x="460" y="271" type="curve" smooth="yes"/>
      <point x="478" y="277"/>
      <point x="498" y="284"/>
      <point x="518" y="292" type="curve" smooth="yes"/>
      <point x="537" y="299"/>
      <point x="556" y="309"/>
      <point x="574" y="321" type="curve" smooth="yes"/>
      <point x="592" y="331"/>
      <point x="608" y="344"/>
      <point x="622" y="359" type="curve" smooth="yes"/>
      <point x="635" y="373"/>
      <point x="646" y="390"/>
      <point x="654" y="410" type="curve" smooth="yes"/>
      <point x="663" y="435"/>
      <point x="666" y="460"/>
      <point x="664" y="484" type="curve" smooth="yes"/>
      <point x="660" y="507"/>
      <point x="652" y="528"/>
      <point x="640" y="548" type="curve" smooth="yes"/>
      <point x="628" y="566"/>
      <point x="612" y="583"/>
      <point x="592" y="597" type="curve" smooth="yes"/>
      <point x="571" y="611"/>
      <point x="548" y="620"/>
      <point x="524" y="626" type="curve" smooth="yes"/>
      <point x="510" y="628"/>
      <point x="493" y="631"/>
      <point x="472" y="634" type="curve" smooth="yes"/>
      <point x="450" y="636"/>
      <point x="425" y="637"/>
      <point x="399" y="637" type="curve" smooth="yes"/>
      <point x="373" y="635"/>
      <point x="347" y="631"/>
      <point x="321" y="625" type="curve" smooth="yes"/>
      <point x="294" y="617"/>
      <point x="270" y="606"/>
      <point x="248" y="590" type="curve" smooth="yes"/>
      <point x="236" y="580"/>
      <point x="226" y="570"/>
      <point x="216" y="559" type="curve" smooth="yes"/>
      <point x="205" y="547"/>
      <point x="197" y="534"/>
      <point x="191" y="520" type="curve" smooth="yes"/>
      <point x="186" y="506"/>
      <point x="184" y="492"/>
      <point x="185" y="477" type="curve" smooth="yes"/>
      <point x="185" y="461"/>
      <point x="189" y="445"/>
      <point x="199" y="430" type="curve" smooth="yes"/>
      <point x="205" y="418"/>
      <point x="213" y="410"/>
      <point x="225" y="406" type="curve" smooth="yes"/>
      <point x="235" y="400"/>
      <point x="247" y="398"/>
      <point x="259" y="400" type="curve" smooth="yes"/>
      <point x="271" y="401"/>
      <point x="282" y="406"/>
      <point x="293" y="415" type="curve" smooth="yes"/>
      <point x="303" y="423"/>
      <point x="311" y="435"/>
      <point x="316" y="451" type="curve" smooth="yes"/>
      <point x="319" y="461"/>
      <point x="320" y="472"/>
      <point x="319" y="482" type="curve" smooth="yes"/>
      <point x="317" y="492"/>
      <point x="314" y="500"/>
      <point x="312" y="508" type="curve" smooth="yes"/>
      <point x="308" y="515"/>
      <point x="304" y="523"/>
      <point x="298" y="532" type="curve" smooth="yes"/>
      <point x="291" y="540"/>
      <point x="292" y="545"/>
      <point x="302" y="545" type="curve"/>
      <point x="302" y="545"/>
      <point x="304" y="547"/>
      <point x="308" y="551" type="curve" smooth="yes"/>
      <point x="312" y="554"/>
      <point x="319" y="558"/>
      <point x="331" y="562" type="curve" smooth="yes"/>
      <point x="342" y="567"/>
      <point x="356" y="571"/>
      <point x="374" y="575" type="curve" smooth="yes"/>
      <point x="391" y="577"/>
      <point x="412" y="578"/>
      <point x="438" y="576" type="curve" smooth="yes"/>
      <point x="458" y="574"/>
      <point x="476" y="567"/>
      <point x="492" y="556" type="curve" smooth="yes"/>
      <point x="506" y="544"/>
      <point x="517" y="530"/>
      <point x="523" y="513" type="curve" smooth="yes"/>
      <point x="529" y="496"/>
      <point x="530" y="478"/>
      <point x="527" y="458" type="curve" smooth="yes"/>
      <point x="523" y="437"/>
      <point x="514" y="417"/>
      <point x="500" y="397" type="curve" smooth="yes"/>
      <point x="490" y="383"/>
      <point x="479" y="372"/>
      <point x="465" y="363" type="curve" smooth="yes"/>
      <point x="450" y="353"/>
      <point x="434" y="343"/>
      <point x="417" y="334" type="curve" smooth="yes"/>
      <point x="399" y="324"/>
      <point x="381" y="314"/>
      <point x="361" y="304" type="curve" smooth="yes"/>
      <point x="341" y="293"/>
      <point x="320" y="280"/>
      <point x="299" y="266" type="curve" smooth="yes"/>
      <point x="259" y="238"/>
      <point x="227" y="210"/>
      <point x="204" y="182" type="curve" smooth="yes"/>
      <point x="180" y="153"/>
      <point x="169" y="126"/>
      <point x="169" y="100" type="curve" smooth="yes"/>
      <point x="169" y="37" type="line"/>
      <point x="657" y="37" type="line"/>
    </contour>
    <contour>
      <point x="151" y="-86" type="line" smooth="yes"/>
      <point x="139" y="-86"/>
      <point x="127" y="-83"/>
      <point x="114" y="-79" type="curve" smooth="yes"/>
      <point x="100" y="-74"/>
      <point x="89" y="-67"/>
      <point x="82" y="-58" type="curve" smooth="yes"/>
      <point x="70" y="-47"/>
      <point x="63" y="-33"/>
      <point x="59" y="-16" type="curve" smooth="yes"/>
      <point x="54" y="1"/>
      <point x="52" y="18"/>
      <point x="52" y="34" type="curve" smooth="yes"/>
      <point x="52" y="632" type="line" smooth="yes"/>
      <point x="52" y="644"/>
      <point x="53" y="659"/>
      <point x="57" y="675" type="curve" smooth="yes"/>
      <point x="60" y="691"/>
      <point x="65" y="704"/>
      <point x="73" y="714" type="curve" smooth="yes"/>
      <point x="83" y="727"/>
      <point x="95" y="736"/>
      <point x="111" y="742" type="curve" smooth="yes"/>
      <point x="126" y="747"/>
      <point x="140" y="750"/>
      <point x="154" y="750" type="curve" smooth="yes"/>
      <point x="681" y="750" type="line" smooth="yes"/>
      <point x="695" y="750"/>
      <point x="709" y="747"/>
      <point x="725" y="742" type="curve" smooth="yes"/>
      <point x="739" y="736"/>
      <point x="752" y="727"/>
      <point x="763" y="714" type="curve" smooth="yes"/>
      <point x="769" y="704"/>
      <point x="775" y="691"/>
      <point x="779" y="675" type="curve" smooth="yes"/>
      <point x="783" y="659"/>
      <point x="785" y="644"/>
      <point x="785" y="632" type="curve" smooth="yes"/>
      <point x="785" y="34" type="line" smooth="yes"/>
      <point x="785" y="18"/>
      <point x="782" y="1"/>
      <point x="778" y="-16" type="curve" smooth="yes"/>
      <point x="772" y="-33"/>
      <point x="764" y="-47"/>
      <point x="754" y="-59" type="curve" smooth="yes"/>
      <point x="746" y="-67"/>
      <point x="735" y="-74"/>
      <point x="722" y="-79" type="curve" smooth="yes"/>
      <point x="708" y="-83"/>
      <point x="695" y="-86"/>
      <point x="683" y="-86" type="curve" smooth="yes"/>
    </contour>
    <contour>
      <point x="166" y="765" type="line" smooth="yes"/>
      <point x="160" y="765"/>
      <point x="153" y="764"/>
      <point x="145" y="764" type="curve" smooth="yes"/>
      <point x="135" y="763"/>
      <point x="125" y="761"/>
      <point x="115" y="759" type="curve" smooth="yes"/>
      <point x="105" y="756"/>
      <point x="95" y="752"/>
      <point x="86" y="748" type="curve" smooth="yes"/>
      <point x="76" y="742"/>
      <point x="68" y="735"/>
      <point x="62" y="727" type="curve" smooth="yes"/>
      <point x="51" y="712"/>
      <point x="44" y="696"/>
      <point x="41" y="678" type="curve" smooth="yes"/>
      <point x="37" y="660"/>
      <point x="36" y="645"/>
      <point x="36" y="633" type="curve" smooth="yes"/>
      <point x="36" y="46" type="line" smooth="yes"/>
      <point x="36" y="40"/>
      <point x="36" y="32"/>
      <point x="37" y="22" type="curve" smooth="yes"/>
      <point x="37" y="11"/>
      <point x="39" y="0"/>
      <point x="42" y="-11" type="curve" smooth="yes"/>
      <point x="44" y="-23"/>
      <point x="47" y="-34"/>
      <point x="52" y="-45" type="curve" smooth="yes"/>
      <point x="56" y="-55"/>
      <point x="62" y="-63"/>
      <point x="70" y="-70" type="curve" smooth="yes"/>
      <point x="82" y="-82"/>
      <point x="97" y="-90"/>
      <point x="113" y="-95" type="curve" smooth="yes"/>
      <point x="129" y="-99"/>
      <point x="143" y="-101"/>
      <point x="155" y="-101" type="curve" smooth="yes"/>
      <point x="679" y="-101" type="line" smooth="yes"/>
      <point x="691" y="-101"/>
      <point x="706" y="-99"/>
      <point x="722" y="-95" type="curve" smooth="yes"/>
      <point x="737" y="-90"/>
      <point x="751" y="-82"/>
      <point x="765" y="-70" type="curve" smooth="yes"/>
      <point x="772" y="-63"/>
      <point x="778" y="-55"/>
      <point x="783" y="-45" type="curve" smooth="yes"/>
      <point x="787" y="-34"/>
      <point x="791" y="-23"/>
      <point x="793" y="-11" type="curve" smooth="yes"/>
      <point x="795" y="0"/>
      <point x="797" y="11"/>
      <point x="799" y="22" type="curve" smooth="yes"/>
      <point x="799" y="32"/>
      <point x="800" y="40"/>
      <point x="800" y="46" type="curve" smooth="yes"/>
      <point x="800" y="633" type="line" smooth="yes"/>
      <point x="800" y="645"/>
      <point x="798" y="660"/>
      <point x="795" y="678" type="curve" smooth="yes"/>
      <point x="791" y="696"/>
      <point x="783" y="712"/>
      <point x="773" y="727" type="curve" smooth="yes"/>
      <point x="767" y="735"/>
      <point x="760" y="742"/>
      <point x="751" y="748" type="curve" smooth="yes"/>
      <point x="741" y="752"/>
      <point x="730" y="756"/>
      <point x="720" y="759" type="curve" smooth="yes"/>
      <point x="710" y="761"/>
      <point x="700" y="763"/>
      <point x="692" y="764" type="curve" smooth="yes"/>
      <point x="682" y="764"/>
      <point x="675" y="765"/>
      <point x="669" y="765" type="curve" smooth="yes"/>
    </contour>
  </outline>
</glyph>
<glyph name="uni00B3" format="2">
  <advance width="348"/>
  <unicode hex="00B3"/>
  <outline>
    <contour>
      <point x="220" y="554" type="curve"/>
      <point x="237" y="558"/>
      <point x="250" y="566"/>
      <point x="258" y="580" type="curve" smooth="yes"/>
      <point x="266" y="592"/>
      <point x="270" y="612"/>
      <point x="270" y="638" type="curve" smooth="yes"/>
      <point x="270" y="654"/>
      <point x="267" y="669"/>
      <point x="263" y="682" type="curve" smooth="yes"/>
      <point x="257" y="694"/>
      <point x="250" y="705"/>
      <point x="241" y="714" type="curve" smooth="yes"/>
      <point x="232" y="723"/>
      <point x="221" y="730"/>
      <point x="209" y="735" type="curve" smooth="yes"/>
      <point x="195" y="739"/>
      <point x="182" y="741"/>
      <point x="170" y="741" type="curve" smooth="yes"/>
      <point x="153" y="741"/>
      <point x="139" y="738"/>
      <point x="127" y="733" type="curve" smooth="yes"/>
      <point x="114" y="727"/>
      <point x="104" y="719"/>
      <point x="97" y="710" type="curve" smooth="yes"/>
      <point x="89" y="701"/>
      <point x="83" y="691"/>
      <point x="80" y="681" type="curve" smooth="yes"/>
      <point x="76" y="670"/>
      <point x="74" y="662"/>
      <point x="74" y="658" type="curve"/>
      <point x="112" y="658" type="line"/>
      <point x="113" y="669"/>
      <point x="119" y="680"/>
      <point x="129" y="690" type="curve" smooth="yes"/>
      <point x="139" y="700"/>
      <point x="154" y="705"/>
      <point x="175" y="705" type="curve" smooth="yes"/>
      <point x="191" y="705"/>
      <point x="204" y="699"/>
      <point x="215" y="687" type="curve" smooth="yes"/>
      <point x="225" y="674"/>
      <point x="229" y="658"/>
      <point x="229" y="638" type="curve" smooth="yes"/>
      <point x="229" y="624"/>
      <point x="227" y="614"/>
      <point x="225" y="606" type="curve" smooth="yes"/>
      <point x="222" y="598"/>
      <point x="218" y="590"/>
      <point x="212" y="584" type="curve" smooth="yes"/>
      <point x="206" y="578"/>
      <point x="198" y="574"/>
      <point x="188" y="572" type="curve" smooth="yes"/>
      <point x="177" y="569"/>
      <point x="166" y="568"/>
      <point x="155" y="568" type="curve"/>
      <point x="155" y="532" type="line"/>
      <point x="172" y="532"/>
      <point x="190" y="527"/>
      <point x="208" y="517" type="curve" smooth="yes"/>
      <point x="225" y="507"/>
      <point x="234" y="486"/>
      <point x="234" y="455" type="curve" smooth="yes"/>
      <point x="234" y="430"/>
      <point x="228" y="410"/>
      <point x="218" y="396" type="curve" smooth="yes"/>
      <point x="207" y="381"/>
      <point x="191" y="374"/>
      <point x="169" y="374" type="curve" smooth="yes"/>
      <point x="147" y="374"/>
      <point x="132" y="380"/>
      <point x="124" y="392" type="curve" smooth="yes"/>
      <point x="115" y="403"/>
      <point x="110" y="413"/>
      <point x="110" y="422" type="curve"/>
      <point x="67" y="422" type="line"/>
      <point x="69" y="401"/>
      <point x="78" y="382"/>
      <point x="95" y="364" type="curve" smooth="yes"/>
      <point x="111" y="346"/>
      <point x="137" y="337"/>
      <point x="171" y="337" type="curve" smooth="yes"/>
      <point x="204" y="337"/>
      <point x="230" y="348"/>
      <point x="249" y="371" type="curve" smooth="yes"/>
      <point x="267" y="393"/>
      <point x="276" y="421"/>
      <point x="276" y="453" type="curve" smooth="yes"/>
      <point x="276" y="480"/>
      <point x="272" y="501"/>
      <point x="264" y="515" type="curve" smooth="yes"/>
      <point x="256" y="528"/>
      <point x="241" y="541"/>
    </contour>
  </outline>
</glyph>
<glyph name="cedilla" format="2">
  <advance width="280"/>
  <unicode hex="00B8"/>
  <outline>
    <contour>
      <point x="240" y="27" type="line"/>
      <point x="177" y="27" type="line"/>
      <point x="177" y="-73" type="line" smooth="yes"/>
      <point x="175" y="-92"/>
      <point x="168" y="-105"/>
      <point x="156" y="-112" type="curve" smooth="yes"/>
      <point x="143" y="-118"/>
      <point x="128" y="-121"/>
      <point x="111" y="-121" type="curve" smooth="yes"/>
      <point x="97" y="-121"/>
      <point x="85" y="-119"/>
      <point x="74" y="-115" type="curve" smooth="yes"/>
      <point x="62" y="-110"/>
      <point x="53" y="-106"/>
      <point x="46" y="-102" type="curve"/>
      <point x="36" y="-120" type="line"/>
      <point x="47" y="-128"/>
      <point x="62" y="-135"/>
      <point x="80" y="-141" type="curve" smooth="yes"/>
      <point x="97" y="-147"/>
      <point x="116" y="-149"/>
      <point x="137" y="-149" type="curve" smooth="yes"/>
      <point x="165" y="-149"/>
      <point x="190" y="-141"/>
      <point x="210" y="-127" type="curve" smooth="yes"/>
      <point x="230" y="-112"/>
      <point x="240" y="-92"/>
      <point x="240" y="-68" type="curve" smooth="yes"/>
    </contour>
  </outline>
</glyph>
<glyph name="threequarters" format="2">
  <advance width="838"/>
  <unicode hex="00BE"/>
  <outline>
    <contour>
      <point x="130" y="-50" type="line"/>
      <point x="715" y="710" type="line"/>
      <point x="680" y="736" type="line"/>
      <point x="95" y="-24" type="line"/>
    </contour>
    <contour>
      <point x="617" y="51" type="line"/>
      <point x="617" y="-55" type="line"/>
      <point x="660" y="-55" type="line"/>
      <point x="660" y="51" type="line"/>
      <point x="716" y="51" type="line"/>
      <point x="716" y="92" type="line"/>
      <point x="660" y="92" type="line"/>
      <point x="660" y="342" type="line"/>
      <point x="615" y="342" type="line"/>
      <point x="479" y="88" type="line"/>
      <point x="479" y="51" type="line"/>
    </contour>
    <contour>
      <point x="617" y="277" type="line"/>
      <point x="617" y="92" type="line"/>
      <point x="522" y="92" type="line"/>
    </contour>
    <contour>
      <point x="236" y="550" type="curve"/>
      <point x="255" y="558"/>
      <point x="269" y="568"/>
      <point x="279" y="582" type="curve" smooth="yes"/>
      <point x="288" y="595"/>
      <point x="293" y="614"/>
      <point x="293" y="638" type="curve" smooth="yes"/>
      <point x="293" y="654"/>
      <point x="290" y="668"/>
      <point x="284" y="681" type="curve" smooth="yes"/>
      <point x="277" y="693"/>
      <point x="269" y="704"/>
      <point x="260" y="713" type="curve" smooth="yes"/>
      <point x="251" y="722"/>
      <point x="241" y="729"/>
      <point x="229" y="734" type="curve" smooth="yes"/>
      <point x="216" y="738"/>
      <point x="203" y="741"/>
      <point x="190" y="741" type="curve" smooth="yes"/>
      <point x="172" y="741"/>
      <point x="157" y="738"/>
      <point x="145" y="733" type="curve" smooth="yes"/>
      <point x="132" y="727"/>
      <point x="122" y="719"/>
      <point x="115" y="710" type="curve" smooth="yes"/>
      <point x="107" y="701"/>
      <point x="101" y="691"/>
      <point x="97" y="681" type="curve" smooth="yes"/>
      <point x="93" y="670"/>
      <point x="91" y="662"/>
      <point x="91" y="658" type="curve"/>
      <point x="135" y="658" type="line"/>
      <point x="136" y="669"/>
      <point x="142" y="680"/>
      <point x="152" y="690" type="curve" smooth="yes"/>
      <point x="162" y="700"/>
      <point x="176" y="705"/>
      <point x="195" y="705" type="curve" smooth="yes"/>
      <point x="209" y="705"/>
      <point x="222" y="699"/>
      <point x="232" y="687" type="curve" smooth="yes"/>
      <point x="242" y="674"/>
      <point x="247" y="658"/>
      <point x="247" y="638" type="curve" smooth="yes"/>
      <point x="247" y="612"/>
      <point x="240" y="594"/>
      <point x="226" y="584" type="curve" smooth="yes"/>
      <point x="211" y="573"/>
      <point x="193" y="568"/>
      <point x="173" y="568" type="curve"/>
      <point x="173" y="532" type="line"/>
      <point x="191" y="532"/>
      <point x="208" y="527"/>
      <point x="226" y="517" type="curve" smooth="yes"/>
      <point x="242" y="507"/>
      <point x="251" y="486"/>
      <point x="251" y="455" type="curve" smooth="yes"/>
      <point x="251" y="431"/>
      <point x="246" y="411"/>
      <point x="236" y="397" type="curve" smooth="yes"/>
      <point x="225" y="381"/>
      <point x="209" y="374"/>
      <point x="189" y="374" type="curve" smooth="yes"/>
      <point x="169" y="374"/>
      <point x="155" y="380"/>
      <point x="147" y="392" type="curve" smooth="yes"/>
      <point x="138" y="403"/>
      <point x="133" y="413"/>
      <point x="133" y="422" type="curve"/>
      <point x="84" y="422" type="line"/>
      <point x="86" y="402"/>
      <point x="96" y="383"/>
      <point x="113" y="365" type="curve" smooth="yes"/>
      <point x="129" y="346"/>
      <point x="155" y="337"/>
      <point x="191" y="337" type="curve" smooth="yes"/>
      <point x="226" y="337"/>
      <point x="253" y="348"/>
      <point x="272" y="371" type="curve" smooth="yes"/>
      <point x="290" y="393"/>
      <point x="300" y="421"/>
      <point x="300" y="453" type="curve" smooth="yes"/>
      <point x="300" y="479"/>
      <point x="294" y="500"/>
      <point x="283" y="515" type="curve" smooth="yes"/>
      <point x="271" y="529"/>
      <point x="256" y="541"/>
    </contour>
  </outline>
</glyph>
<glyph name="AE" format="2">
  <advance width="751"/>
  <unicode hex="00C6"/>
  <outline>
    <contour>
      <point x="20" y="14" type="line"/>
      <point x="71" y="14" type="line"/>
      <point x="152" y="229" type="line"/>
      <point x="368" y="229" type="line"/>
      <point x="368" y="14" type="line"/>
      <point x="697" y="14" type="line"/>
      <point x="697" y="65" type="line"/>
      <point x="423" y="65" type="line"/>
      <point x="423" y="348" type="line"/>
      <point x="679" y="348" type="line"/>
      <point x="679" y="398" type="line"/>
      <point x="423" y="398" type="line"/>
      <point x="423" y="648" type="line"/>
      <point x="689" y="648" type="line"/>
      <point x="689" y="699" type="line"/>
      <point x="277" y="699" type="line"/>
    </contour>
    <contour>
      <point x="302" y="630" type="line"/>
      <point x="368" y="630" type="line"/>
      <point x="368" y="279" type="line"/>
      <point x="171" y="279" type="line"/>
    </contour>
  </outline>
</glyph>
<glyph name="oslash" format="2">
  <advance width="533"/>
  <unicode hex="00F8"/>
  <outline>
    <contour>
      <point x="407" y="252" type="curve" smooth="yes"/>
      <point x="407" y="224"/>
      <point x="403" y="198"/>
      <point x="397" y="173" type="curve" smooth="yes"/>
      <point x="390" y="147"/>
      <point x="381" y="124"/>
      <point x="369" y="105" type="curve" smooth="yes"/>
      <point x="355" y="86"/>
      <point x="338" y="72"/>
      <point x="320" y="62" type="curve" smooth="yes"/>
      <point x="301" y="51"/>
      <point x="282" y="46"/>
      <point x="262" y="46" type="curve" smooth="yes"/>
      <point x="242" y="46"/>
      <point x="222" y="51"/>
      <point x="204" y="62" type="curve" smooth="yes"/>
      <point x="198" y="64"/>
      <point x="192" y="68"/>
      <point x="187" y="72" type="curve"/>
      <point x="385" y="369" type="line"/>
      <point x="389" y="357"/>
      <point x="393" y="345"/>
      <point x="397" y="332" type="curve" smooth="yes"/>
      <point x="403" y="306"/>
      <point x="407" y="279"/>
    </contour>
    <contour>
      <point x="365" y="405" type="curve"/>
      <point x="161" y="98" type="line"/>
      <point x="159" y="100"/>
      <point x="157" y="102"/>
      <point x="155" y="105" type="curve" smooth="yes"/>
      <point x="143" y="124"/>
      <point x="133" y="147"/>
      <point x="127" y="173" type="curve" smooth="yes"/>
      <point x="120" y="198"/>
      <point x="117" y="224"/>
      <point x="117" y="252" type="curve" smooth="yes"/>
      <point x="117" y="279"/>
      <point x="120" y="306"/>
      <point x="127" y="332" type="curve" smooth="yes"/>
      <point x="133" y="358"/>
      <point x="143" y="380"/>
      <point x="155" y="400" type="curve" smooth="yes"/>
      <point x="169" y="418"/>
      <point x="185" y="433"/>
      <point x="204" y="444" type="curve" smooth="yes"/>
      <point x="222" y="454"/>
      <point x="242" y="459"/>
      <point x="262" y="459" type="curve" smooth="yes"/>
      <point x="282" y="459"/>
      <point x="301" y="454"/>
      <point x="320" y="444" type="curve" smooth="yes"/>
      <point x="337" y="434"/>
      <point x="352" y="421"/>
    </contour>
    <contour>
      <point x="464" y="252" type="curve" smooth="yes"/>
      <point x="464" y="286"/>
      <point x="459" y="319"/>
      <point x="450" y="351" type="curve" smooth="yes"/>
      <point x="442" y="376"/>
      <point x="431" y="399"/>
      <point x="417" y="419" type="curve"/>
      <point x="458" y="480" type="line"/>
      <point x="430" y="501" type="line"/>
      <point x="394" y="447" type="line"/>
      <point x="378" y="462"/>
      <point x="361" y="474"/>
      <point x="342" y="484" type="curve" smooth="yes"/>
      <point x="316" y="496"/>
      <point x="289" y="502"/>
      <point x="262" y="502" type="curve" smooth="yes"/>
      <point x="234" y="502"/>
      <point x="208" y="496"/>
      <point x="183" y="484" type="curve" smooth="yes"/>
      <point x="157" y="472"/>
      <point x="135" y="454"/>
      <point x="117" y="432" type="curve" smooth="yes"/>
      <point x="98" y="409"/>
      <point x="84" y="382"/>
      <point x="75" y="351" type="curve" smooth="yes"/>
      <point x="65" y="319"/>
      <point x="60" y="286"/>
      <point x="60" y="252" type="curve" smooth="yes"/>
      <point x="60" y="217"/>
      <point x="65" y="184"/>
      <point x="75" y="154" type="curve" smooth="yes"/>
      <point x="84" y="122"/>
      <point x="98" y="95"/>
      <point x="117" y="73" type="curve" smooth="yes"/>
      <point x="121" y="67"/>
      <point x="126" y="61"/>
      <point x="132" y="56" type="curve"/>
      <point x="91" y="-6" type="line"/>
      <point x="122" y="-26" type="line"/>
      <point x="161" y="33" type="line"/>
      <point x="167" y="28"/>
      <point x="175" y="24"/>
      <point x="183" y="21" type="curve" smooth="yes"/>
      <point x="208" y="9"/>
      <point x="234" y="3"/>
      <point x="262" y="3" type="curve" smooth="yes"/>
      <point x="289" y="3"/>
      <point x="316" y="9"/>
      <point x="342" y="21" type="curve" smooth="yes"/>
      <point x="367" y="33"/>
      <point x="389" y="50"/>
      <point x="407" y="73" type="curve" smooth="yes"/>
      <point x="425" y="95"/>
      <point x="440" y="122"/>
      <point x="450" y="154" type="curve" smooth="yes"/>
      <point x="459" y="184"/>
      <point x="464" y="217"/>
    </contour>
  </outline>
</glyph>
<glyph name="dcroat" format="2">
  <advance width="542"/>
  <unicode hex="0111"/>
  <outline>
    <contour>
      <point x="369" y="571" type="line"/>
      <point x="369" y="393" type="line"/>
      <point x="363" y="405"/>
      <point x="355" y="418"/>
      <point x="345" y="433" type="curve" smooth="yes"/>
      <point x="333" y="447"/>
      <point x="323" y="459"/>
      <point x="314" y="467" type="curve" smooth="yes"/>
      <point x="304" y="475"/>
      <point x="293" y="481"/>
      <point x="279" y="487" type="curve" smooth="yes"/>
      <point x="265" y="491"/>
      <point x="249" y="494"/>
      <point x="231" y="495" type="curve" smooth="yes"/>
      <point x="179" y="495"/>
      <point x="136" y="473"/>
      <point x="104" y="430" type="curve" smooth="yes"/>
      <point x="70" y="386"/>
      <point x="54" y="322"/>
      <point x="54" y="240" type="curve" smooth="yes"/>
      <point x="54" y="204"/>
      <point x="58" y="172"/>
      <point x="67" y="143" type="curve" smooth="yes"/>
      <point x="75" y="113"/>
      <point x="86" y="88"/>
      <point x="101" y="68" type="curve" smooth="yes"/>
      <point x="115" y="47"/>
      <point x="132" y="31"/>
      <point x="153" y="20" type="curve" smooth="yes"/>
      <point x="173" y="8"/>
      <point x="194" y="3"/>
      <point x="218" y="3" type="curve" smooth="yes"/>
      <point x="241" y="3"/>
      <point x="261" y="6"/>
      <point x="278" y="13" type="curve" smooth="yes"/>
      <point x="294" y="19"/>
      <point x="307" y="27"/>
      <point x="318" y="36" type="curve" smooth="yes"/>
      <point x="328" y="44"/>
      <point x="338" y="56"/>
      <point x="349" y="71" type="curve" smooth="yes"/>
      <point x="359" y="85"/>
      <point x="365" y="98"/>
      <point x="369" y="108" type="curve"/>
      <point x="369" y="14" type="line"/>
      <point x="417" y="14" type="line"/>
      <point x="417" y="571" type="line"/>
      <point x="504" y="571" type="line"/>
      <point x="504" y="611" type="line"/>
      <point x="417" y="611" type="line"/>
      <point x="417" y="699" type="line"/>
      <point x="369" y="699" type="line"/>
      <point x="369" y="611" type="line"/>
      <point x="153" y="611" type="line"/>
      <point x="153" y="571" type="line"/>
    </contour>
    <contour>
      <point x="112" y="237" type="curve" smooth="yes"/>
      <point x="112" y="305"/>
      <point x="123" y="358"/>
      <point x="145" y="396" type="curve" smooth="yes"/>
      <point x="166" y="433"/>
      <point x="196" y="452"/>
      <point x="235" y="452" type="curve" smooth="yes"/>
      <point x="259" y="452"/>
      <point x="279" y="445"/>
      <point x="295" y="432" type="curve" smooth="yes"/>
      <point x="311" y="418"/>
      <point x="324" y="403"/>
      <point x="334" y="385" type="curve" smooth="yes"/>
      <point x="343" y="366"/>
      <point x="350" y="347"/>
      <point x="355" y="328" type="curve" smooth="yes"/>
      <point x="359" y="308"/>
      <point x="361" y="291"/>
      <point x="361" y="277" type="curve" smooth="yes"/>
      <point x="361" y="261"/>
      <point x="360" y="244"/>
      <point x="360" y="228" type="curve" smooth="yes"/>
      <point x="358" y="210"/>
      <point x="357" y="195"/>
      <point x="355" y="183" type="curve" smooth="yes"/>
      <point x="348" y="144"/>
      <point x="334" y="111"/>
      <point x="314" y="85" type="curve" smooth="yes"/>
      <point x="293" y="57"/>
      <point x="267" y="44"/>
      <point x="236" y="44" type="curve" smooth="yes"/>
      <point x="213" y="44"/>
      <point x="194" y="50"/>
      <point x="179" y="63" type="curve" smooth="yes"/>
      <point x="163" y="75"/>
      <point x="150" y="90"/>
      <point x="140" y="109" type="curve" smooth="yes"/>
      <point x="130" y="127"/>
      <point x="123" y="148"/>
      <point x="119" y="171" type="curve" smooth="yes"/>
      <point x="114" y="193"/>
      <point x="112" y="215"/>
    </contour>
  </outline>
</glyph>
<glyph name="IJ" format="2">
  <advance width="597"/>
  <unicode hex="0132"/>
  <outline>
    <contour>
      <point x="93" y="14" type="line"/>
      <point x="150" y="14" type="line"/>
      <point x="150" y="699" type="line"/>
      <point x="93" y="699" type="line"/>
    </contour>
    <contour>
      <point x="502" y="699" type="line"/>
      <point x="447" y="699" type="line"/>
      <point x="447" y="167" type="line" smooth="yes"/>
      <point x="447" y="147"/>
      <point x="444" y="131"/>
      <point x="440" y="117" type="curve" smooth="yes"/>
      <point x="434" y="103"/>
      <point x="428" y="91"/>
      <point x="420" y="83" type="curve" smooth="yes"/>
      <point x="412" y="73"/>
      <point x="403" y="67"/>
      <point x="394" y="63" type="curve" smooth="yes"/>
      <point x="384" y="59"/>
      <point x="375" y="56"/>
      <point x="368" y="55" type="curve" smooth="yes"/>
      <point x="362" y="53"/>
      <point x="356" y="53"/>
      <point x="352" y="53" type="curve" smooth="yes"/>
      <point x="346" y="53"/>
      <point x="342" y="53"/>
      <point x="338" y="53" type="curve" smooth="yes"/>
      <point x="322" y="53"/>
      <point x="305" y="55"/>
      <point x="289" y="59" type="curve" smooth="yes"/>
      <point x="271" y="62"/>
      <point x="261" y="64"/>
      <point x="259" y="66" type="curve"/>
      <point x="259" y="12" type="line"/>
      <point x="280" y="5"/>
      <point x="305" y="2"/>
      <point x="334" y="3" type="curve" smooth="yes"/>
      <point x="368" y="3"/>
      <point x="395" y="9"/>
      <point x="417" y="19" type="curve" smooth="yes"/>
      <point x="438" y="28"/>
      <point x="455" y="40"/>
      <point x="469" y="55" type="curve" smooth="yes"/>
      <point x="481" y="70"/>
      <point x="489" y="87"/>
      <point x="495" y="107" type="curve" smooth="yes"/>
      <point x="499" y="126"/>
      <point x="502" y="145"/>
      <point x="502" y="164" type="curve" smooth="yes"/>
    </contour>
  </outline>
</glyph>
<glyph name="Ldot" format="2">
  <advance width="512"/>
  <unicode hex="013F"/>
  <outline>
    <contour>
      <point x="107" y="14" type="line"/>
      <point x="447" y="14" type="line"/>
      <point x="447" y="65" type="line"/>
      <point x="161" y="65" type="line"/>
      <point x="161" y="699" type="line"/>
      <point x="107" y="699" type="line"/>
    </contour>
    <contour>
      <point x="309" y="408" type="line"/>
      <point x="309" y="324" type="line"/>
      <point x="381" y="324" type="line"/>
      <point x="381" y="408" type="line"/>
    </contour>
  </outline>
</glyph>
<glyph name="ldot" format="2">
  <advance width="366"/>
  <unicode hex="0140"/>
  <outline>
    <contour>
      <point x="98" y="14" type="line"/>
      <point x="149" y="14" type="line"/>
      <point x="149" y="699" type="line"/>
      <point x="98" y="699" type="line"/>
    </contour>
    <contour>
      <point x="233" y="434" type="line"/>
      <point x="233" y="350" type="line"/>
      <point x="305" y="350" type="line"/>
      <point x="305" y="434" type="line"/>
    </contour>
  </outline>
</glyph>
<glyph name="napostrophe" format="2">
  <advance width="661"/>
  <unicode hex="0149"/>
  <outline>
    <contour>
      <point x="237" y="14" type="line"/>
      <point x="283" y="14" type="line"/>
      <point x="283" y="211" type="line" smooth="yes"/>
      <point x="283" y="221"/>
      <point x="283" y="233"/>
      <point x="285" y="245" type="curve" smooth="yes"/>
      <point x="285" y="257"/>
      <point x="287" y="270"/>
      <point x="290" y="284" type="curve" smooth="yes"/>
      <point x="300" y="332"/>
      <point x="318" y="371"/>
      <point x="344" y="403" type="curve" smooth="yes"/>
      <point x="369" y="434"/>
      <point x="398" y="449"/>
      <point x="431" y="447" type="curve" smooth="yes"/>
      <point x="454" y="445"/>
      <point x="472" y="438"/>
      <point x="486" y="428" type="curve" smooth="yes"/>
      <point x="498" y="416"/>
      <point x="507" y="402"/>
      <point x="513" y="386" type="curve" smooth="yes"/>
      <point x="519" y="370"/>
      <point x="522" y="352"/>
      <point x="524" y="334" type="curve" smooth="yes"/>
      <point x="524" y="314"/>
      <point x="525" y="296"/>
      <point x="525" y="280" type="curve" smooth="yes"/>
      <point x="525" y="14" type="line"/>
      <point x="570" y="14" type="line"/>
      <point x="570" y="357" type="line" smooth="yes"/>
      <point x="568" y="405"/>
      <point x="556" y="441"/>
      <point x="534" y="465" type="curve" smooth="yes"/>
      <point x="511" y="489"/>
      <point x="481" y="501"/>
      <point x="445" y="501" type="curve" smooth="yes"/>
      <point x="420" y="501"/>
      <point x="399" y="496"/>
      <point x="381" y="487" type="curve" smooth="yes"/>
      <point x="362" y="477"/>
      <point x="347" y="466"/>
      <point x="336" y="454" type="curve" smooth="yes"/>
      <point x="324" y="441"/>
      <point x="315" y="428"/>
      <point x="308" y="416" type="curve" smooth="yes"/>
      <point x="300" y="402"/>
      <point x="292" y="387"/>
      <point x="283" y="369" type="curve"/>
      <point x="283" y="490" type="line"/>
      <point x="237" y="490" type="line"/>
    </contour>
    <contour>
      <point x="149" y="778" type="line"/>
      <point x="70" y="778" type="line"/>
      <point x="70" y="689" type="line"/>
      <point x="115" y="689" type="line"/>
      <point x="115" y="676"/>
      <point x="114" y="666"/>
      <point x="114" y="658" type="curve" smooth="yes"/>
      <point x="113" y="649"/>
      <point x="110" y="641"/>
      <point x="106" y="635" type="curve" smooth="yes"/>
      <point x="101" y="627"/>
      <point x="95" y="621"/>
      <point x="88" y="616" type="curve" smooth="yes"/>
      <point x="80" y="610"/>
      <point x="74" y="607"/>
      <point x="70" y="605" type="curve"/>
      <point x="90" y="579" type="line"/>
      <point x="96" y="582"/>
      <point x="104" y="588"/>
      <point x="113" y="596" type="curve" smooth="yes"/>
      <point x="121" y="603"/>
      <point x="129" y="612"/>
      <point x="135" y="622" type="curve" smooth="yes"/>
      <point x="139" y="631"/>
      <point x="143" y="644"/>
      <point x="146" y="660" type="curve" smooth="yes"/>
      <point x="148" y="676"/>
      <point x="149" y="689"/>
      <point x="149" y="700" type="curve" smooth="yes"/>
    </contour>
  </outline>
</glyph>
<glyph name="eng" format="2">
  <advance width="505"/>
  <unicode hex="014B"/>
  <outline>
    <contour>
      <point x="247" y="-152" type="line"/>
      <point x="264" y="-152"/>
      <point x="283" y="-150"/>
      <point x="305" y="-146" type="curve" smooth="yes"/>
      <point x="325" y="-142"/>
      <point x="343" y="-133"/>
      <point x="359" y="-120" type="curve" smooth="yes"/>
      <point x="375" y="-107"/>
      <point x="388" y="-89"/>
      <point x="398" y="-65" type="curve" smooth="yes"/>
      <point x="407" y="-41"/>
      <point x="412" y="-9"/>
      <point x="412" y="31" type="curve" smooth="yes"/>
      <point x="412" y="358" type="line" smooth="yes"/>
      <point x="410" y="406"/>
      <point x="397" y="442"/>
      <point x="375" y="466" type="curve" smooth="yes"/>
      <point x="352" y="490"/>
      <point x="322" y="502"/>
      <point x="286" y="502" type="curve" smooth="yes"/>
      <point x="261" y="502"/>
      <point x="240" y="497"/>
      <point x="224" y="488" type="curve" smooth="yes"/>
      <point x="207" y="478"/>
      <point x="193" y="467"/>
      <point x="181" y="455" type="curve" smooth="yes"/>
      <point x="170" y="441"/>
      <point x="161" y="429"/>
      <point x="154" y="419" type="curve" smooth="yes"/>
      <point x="146" y="408"/>
      <point x="136" y="389"/>
      <point x="124" y="361" type="curve"/>
      <point x="124" y="490" type="line"/>
      <point x="79" y="490" type="line"/>
      <point x="79" y="14" type="line"/>
      <point x="124" y="14" type="line"/>
      <point x="124" y="212" type="line" smooth="yes"/>
      <point x="124" y="222"/>
      <point x="124" y="234"/>
      <point x="126" y="246" type="curve" smooth="yes"/>
      <point x="127" y="258"/>
      <point x="129" y="270"/>
      <point x="131" y="284" type="curve" smooth="yes"/>
      <point x="142" y="332"/>
      <point x="160" y="372"/>
      <point x="186" y="404" type="curve" smooth="yes"/>
      <point x="210" y="435"/>
      <point x="239" y="450"/>
      <point x="272" y="448" type="curve" smooth="yes"/>
      <point x="296" y="446"/>
      <point x="314" y="439"/>
      <point x="328" y="429" type="curve" smooth="yes"/>
      <point x="340" y="417"/>
      <point x="349" y="403"/>
      <point x="355" y="387" type="curve" smooth="yes"/>
      <point x="361" y="370"/>
      <point x="364" y="352"/>
      <point x="365" y="334" type="curve" smooth="yes"/>
      <point x="365" y="315"/>
      <point x="366" y="297"/>
      <point x="366" y="280" type="curve" smooth="yes"/>
      <point x="366" y="3" type="line" smooth="yes"/>
      <point x="366" y="-23"/>
      <point x="361" y="-44"/>
      <point x="351" y="-60" type="curve" smooth="yes"/>
      <point x="341" y="-74"/>
      <point x="329" y="-85"/>
      <point x="316" y="-92" type="curve" smooth="yes"/>
      <point x="302" y="-98"/>
      <point x="289" y="-101"/>
      <point x="275" y="-102" type="curve" smooth="yes"/>
      <point x="260" y="-102"/>
      <point x="251" y="-102"/>
      <point x="247" y="-102" type="curve"/>
    </contour>
  </outline>
</glyph>
<glyph name="uni0308" format="2">
  <advance width="480"/>
  <unicode hex="0308"/>
  <outline>
    <contour>
      <point x="115" y="648" type="line"/>
      <point x="115" y="565" type="line"/>
      <point x="188" y="565" type="line"/>
      <point x="188" y="648" type="line"/>
    </contour>
    <contour>
      <point x="303" y="648" type="line"/>
      <point x="303" y="565" type="line"/>
      <point x="377" y="565" type="line"/>
      <point x="377" y="648" type="line"/>
    </contour>
  </outline>
</glyph>
<glyph name="Alpha" format="2">
  <advance width="559"/>
  <unicode hex="0391"/>
  <outline>
    <contour>
      <point x="28" y="14" type="line"/>
      <point x="88" y="14" type="line"/>
      <point x="154" y="234" type="line"/>
      <point x="402" y="234" type="line"/>
      <point x="468" y="14" type="line"/>
      <point x="528" y="14" type="line"/>
      <point x="314" y="699" type="line"/>
      <point x="242" y="699" type="line"/>
    </contour>
    <contour>
      <point x="278" y="653" type="line"/>
      <point x="388" y="284" type="line"/>
      <point x="168" y="284" type="line"/>
    </contour>
  </outline>
</glyph>
<glyph name="Omicron" format="2">
  <advance width="660"/>
  <unicode hex="039F"/>
  <outline>
    <contour>
      <point x="325" y="3" type="curve" smooth="yes"/>
      <point x="372" y="3"/>
      <point x="413" y="12"/>
      <point x="447" y="32" type="curve" smooth="yes"/>
      <point x="481" y="51"/>
      <point x="509" y="77"/>
      <point x="532" y="110" type="curve" smooth="yes"/>
      <point x="554" y="143"/>
      <point x="571" y="181"/>
      <point x="582" y="224" type="curve" smooth="yes"/>
      <point x="592" y="266"/>
      <point x="598" y="311"/>
      <point x="598" y="359" type="curve" smooth="yes"/>
      <point x="598" y="408"/>
      <point x="592" y="454"/>
      <point x="580" y="497" type="curve" smooth="yes"/>
      <point x="568" y="539"/>
      <point x="550" y="576"/>
      <point x="527" y="608" type="curve" smooth="yes"/>
      <point x="505" y="640"/>
      <point x="477" y="666"/>
      <point x="443" y="685" type="curve" smooth="yes"/>
      <point x="409" y="703"/>
      <point x="369" y="712"/>
      <point x="325" y="712" type="curve" smooth="yes"/>
      <point x="280" y="712"/>
      <point x="241" y="702"/>
      <point x="207" y="683" type="curve" smooth="yes"/>
      <point x="173" y="663"/>
      <point x="144" y="636"/>
      <point x="122" y="604" type="curve" smooth="yes"/>
      <point x="98" y="572"/>
      <point x="81" y="535"/>
      <point x="70" y="493" type="curve" smooth="yes"/>
      <point x="58" y="450"/>
      <point x="52" y="405"/>
      <point x="52" y="358" type="curve" smooth="yes"/>
      <point x="52" y="307"/>
      <point x="58" y="260"/>
      <point x="70" y="218" type="curve" smooth="yes"/>
      <point x="81" y="175"/>
      <point x="98" y="138"/>
      <point x="122" y="107" type="curve" smooth="yes"/>
      <point x="144" y="74"/>
      <point x="173" y="49"/>
      <point x="207" y="31" type="curve" smooth="yes"/>
      <point x="241" y="12"/>
      <point x="280" y="3"/>
    </contour>
    <contour>
      <point x="110" y="359" type="curve" smooth="yes"/>
      <point x="110" y="402"/>
      <point x="115" y="442"/>
      <point x="125" y="479" type="curve" smooth="yes"/>
      <point x="135" y="515"/>
      <point x="149" y="547"/>
      <point x="167" y="575" type="curve" smooth="yes"/>
      <point x="185" y="602"/>
      <point x="208" y="624"/>
      <point x="235" y="640" type="curve" smooth="yes"/>
      <point x="261" y="656"/>
      <point x="291" y="664"/>
      <point x="324" y="665" type="curve" smooth="yes"/>
      <point x="360" y="665"/>
      <point x="391" y="656"/>
      <point x="419" y="640" type="curve" smooth="yes"/>
      <point x="445" y="623"/>
      <point x="468" y="600"/>
      <point x="486" y="572" type="curve" smooth="yes"/>
      <point x="503" y="544"/>
      <point x="516" y="512"/>
      <point x="526" y="476" type="curve" smooth="yes"/>
      <point x="534" y="439"/>
      <point x="539" y="400"/>
      <point x="539" y="360" type="curve" smooth="yes"/>
      <point x="539" y="316"/>
      <point x="534" y="275"/>
      <point x="526" y="239" type="curve" smooth="yes"/>
      <point x="516" y="202"/>
      <point x="503" y="170"/>
      <point x="487" y="142" type="curve" smooth="yes"/>
      <point x="469" y="113"/>
      <point x="446" y="91"/>
      <point x="420" y="75" type="curve" smooth="yes"/>
      <point x="392" y="58"/>
      <point x="361" y="50"/>
      <point x="325" y="50" type="curve" smooth="yes"/>
      <point x="289" y="50"/>
      <point x="257" y="58"/>
      <point x="230" y="76" type="curve" smooth="yes"/>
      <point x="202" y="93"/>
      <point x="180" y="116"/>
      <point x="163" y="146" type="curve" smooth="yes"/>
      <point x="145" y="175"/>
      <point x="132" y="208"/>
      <point x="124" y="244" type="curve" smooth="yes"/>
      <point x="114" y="280"/>
      <point x="110" y="318"/>
    </contour>
  </outline>
</glyph>
<glyph name="alpha" format="2">
  <advance width="518"/>
  <unicode hex="03B1"/>
  <outline>
    <contour>
      <point x="207" y="3" type="curve" smooth="yes"/>
      <point x="228" y="3"/>
      <point x="248" y="8"/>
      <point x="267" y="20" type="curve" smooth="yes"/>
      <point x="285" y="31"/>
      <point x="306" y="53"/>
      <point x="330" y="85" type="curve"/>
      <point x="338" y="58"/>
      <point x="346" y="41"/>
      <point x="356" y="33" type="curve" smooth="yes"/>
      <point x="365" y="24"/>
      <point x="376" y="18"/>
      <point x="388" y="16" type="curve" smooth="yes"/>
      <point x="401" y="12"/>
      <point x="415" y="11"/>
      <point x="429" y="11" type="curve" smooth="yes"/>
      <point x="442" y="11"/>
      <point x="457" y="11"/>
      <point x="473" y="11" type="curve"/>
      <point x="473" y="49" type="line"/>
      <point x="449" y="47"/>
      <point x="427" y="52"/>
      <point x="409" y="62" type="curve" smooth="yes"/>
      <point x="391" y="71"/>
      <point x="382" y="93"/>
      <point x="381" y="127" type="curve" smooth="yes"/>
      <point x="379" y="160"/>
      <point x="379" y="186"/>
      <point x="380" y="204" type="curve" smooth="yes"/>
      <point x="391" y="243"/>
      <point x="401" y="288"/>
      <point x="409" y="338" type="curve" smooth="yes"/>
      <point x="416" y="388"/>
      <point x="421" y="438"/>
      <point x="425" y="490" type="curve"/>
      <point x="367" y="490" type="line"/>
      <point x="370" y="467"/>
      <point x="371" y="444"/>
      <point x="370" y="422" type="curve" smooth="yes"/>
      <point x="368" y="399"/>
      <point x="366" y="358"/>
      <point x="363" y="298" type="curve"/>
      <point x="353" y="382"/>
      <point x="332" y="437"/>
      <point x="302" y="463" type="curve" smooth="yes"/>
      <point x="270" y="489"/>
      <point x="241" y="502"/>
      <point x="213" y="502" type="curve" smooth="yes"/>
      <point x="185" y="502"/>
      <point x="162" y="495"/>
      <point x="142" y="481" type="curve" smooth="yes"/>
      <point x="121" y="467"/>
      <point x="104" y="448"/>
      <point x="91" y="426" type="curve" smooth="yes"/>
      <point x="77" y="402"/>
      <point x="66" y="375"/>
      <point x="60" y="344" type="curve" smooth="yes"/>
      <point x="52" y="312"/>
      <point x="49" y="280"/>
      <point x="49" y="248" type="curve" smooth="yes"/>
      <point x="49" y="215"/>
      <point x="52" y="184"/>
      <point x="59" y="155" type="curve" smooth="yes"/>
      <point x="65" y="125"/>
      <point x="74" y="98"/>
      <point x="88" y="76" type="curve" smooth="yes"/>
      <point x="100" y="53"/>
      <point x="117" y="35"/>
      <point x="137" y="23" type="curve" smooth="yes"/>
      <point x="156" y="9"/>
      <point x="179" y="3"/>
    </contour>
    <contour>
      <point x="207" y="46" type="curve" smooth="yes"/>
      <point x="187" y="46"/>
      <point x="171" y="52"/>
      <point x="158" y="64" type="curve" smooth="yes"/>
      <point x="144" y="76"/>
      <point x="134" y="91"/>
      <point x="127" y="111" type="curve" smooth="yes"/>
      <point x="118" y="129"/>
      <point x="112" y="151"/>
      <point x="110" y="175" type="curve" smooth="yes"/>
      <point x="106" y="198"/>
      <point x="105" y="222"/>
      <point x="105" y="248" type="curve" smooth="yes"/>
      <point x="105" y="272"/>
      <point x="106" y="297"/>
      <point x="110" y="323" type="curve" smooth="yes"/>
      <point x="113" y="348"/>
      <point x="119" y="370"/>
      <point x="129" y="390" type="curve" smooth="yes"/>
      <point x="137" y="410"/>
      <point x="148" y="427"/>
      <point x="162" y="440" type="curve" smooth="yes"/>
      <point x="176" y="452"/>
      <point x="192" y="459"/>
      <point x="212" y="459" type="curve" smooth="yes"/>
      <point x="226" y="459"/>
      <point x="241" y="455"/>
      <point x="255" y="447" type="curve" smooth="yes"/>
      <point x="269" y="439"/>
      <point x="281" y="423"/>
      <point x="291" y="401" type="curve" smooth="yes"/>
      <point x="301" y="379"/>
      <point x="309" y="348"/>
      <point x="315" y="309" type="curve" smooth="yes"/>
      <point x="320" y="269"/>
      <point x="323" y="217"/>
      <point x="323" y="153" type="curve"/>
      <point x="307" y="114"/>
      <point x="290" y="87"/>
      <point x="270" y="71" type="curve" smooth="yes"/>
      <point x="250" y="54"/>
      <point x="229" y="46"/>
    </contour>
  </outline>
</glyph>
<glyph name="beta" format="2">
  <advance width="555"/>
  <unicode hex="03B2"/>
  <outline>
    <contour>
      <point x="146" y="138" type="line"/>
      <point x="165" y="92"/>
      <point x="188" y="60"/>
      <point x="216" y="44" type="curve" smooth="yes"/>
      <point x="242" y="26"/>
      <point x="272" y="18"/>
      <point x="305" y="18" type="curve" smooth="yes"/>
      <point x="337" y="18"/>
      <point x="366" y="22"/>
      <point x="391" y="32" type="curve" smooth="yes"/>
      <point x="415" y="40"/>
      <point x="436" y="52"/>
      <point x="452" y="68" type="curve" smooth="yes"/>
      <point x="468" y="83"/>
      <point x="480" y="103"/>
      <point x="489" y="128" type="curve" smooth="yes"/>
      <point x="497" y="152"/>
      <point x="501" y="173"/>
      <point x="502" y="189" type="curve" smooth="yes"/>
      <point x="502" y="222"/>
      <point x="497" y="250"/>
      <point x="487" y="274" type="curve" smooth="yes"/>
      <point x="476" y="296"/>
      <point x="463" y="314"/>
      <point x="448" y="328" type="curve" smooth="yes"/>
      <point x="433" y="340"/>
      <point x="416" y="352"/>
      <point x="397" y="363" type="curve" smooth="yes"/>
      <point x="377" y="373"/>
      <point x="356" y="381"/>
      <point x="334" y="386" type="curve"/>
      <point x="366" y="392"/>
      <point x="395" y="409"/>
      <point x="419" y="436" type="curve" smooth="yes"/>
      <point x="442" y="462"/>
      <point x="455" y="499"/>
      <point x="458" y="545" type="curve" smooth="yes"/>
      <point x="458" y="570"/>
      <point x="453" y="593"/>
      <point x="444" y="614" type="curve" smooth="yes"/>
      <point x="434" y="634"/>
      <point x="420" y="652"/>
      <point x="404" y="667" type="curve" smooth="yes"/>
      <point x="388" y="681"/>
      <point x="368" y="692"/>
      <point x="346" y="700" type="curve" smooth="yes"/>
      <point x="323" y="708"/>
      <point x="299" y="712"/>
      <point x="274" y="712" type="curve" smooth="yes"/>
      <point x="246" y="712"/>
      <point x="221" y="706"/>
      <point x="199" y="695" type="curve" smooth="yes"/>
      <point x="176" y="683"/>
      <point x="157" y="668"/>
      <point x="142" y="648" type="curve" smooth="yes"/>
      <point x="125" y="628"/>
      <point x="113" y="605"/>
      <point x="105" y="579" type="curve" smooth="yes"/>
      <point x="96" y="551"/>
      <point x="92" y="522"/>
      <point x="92" y="490" type="curve" smooth="yes"/>
      <point x="92" y="-152" type="line"/>
      <point x="146" y="-152" type="line"/>
    </contour>
    <contour>
      <point x="305" y="67" type="curve" smooth="yes"/>
      <point x="285" y="67"/>
      <point x="267" y="70"/>
      <point x="250" y="78" type="curve" smooth="yes"/>
      <point x="232" y="84"/>
      <point x="216" y="94"/>
      <point x="201" y="108" type="curve" smooth="yes"/>
      <point x="187" y="122"/>
      <point x="175" y="139"/>
      <point x="165" y="159" type="curve" smooth="yes"/>
      <point x="155" y="178"/>
      <point x="148" y="200"/>
      <point x="146" y="226" type="curve" smooth="yes"/>
      <point x="146" y="493" type="line" smooth="yes"/>
      <point x="146" y="537"/>
      <point x="156" y="576"/>
      <point x="176" y="611" type="curve" smooth="yes"/>
      <point x="196" y="645"/>
      <point x="228" y="663"/>
      <point x="272" y="663" type="curve" smooth="yes"/>
      <point x="311" y="663"/>
      <point x="343" y="651"/>
      <point x="368" y="629" type="curve" smooth="yes"/>
      <point x="392" y="605"/>
      <point x="404" y="576"/>
      <point x="404" y="540" type="curve" smooth="yes"/>
      <point x="404" y="513"/>
      <point x="399" y="491"/>
      <point x="391" y="474" type="curve" smooth="yes"/>
      <point x="381" y="456"/>
      <point x="369" y="442"/>
      <point x="354" y="432" type="curve" smooth="yes"/>
      <point x="340" y="422"/>
      <point x="325" y="415"/>
      <point x="309" y="411" type="curve" smooth="yes"/>
      <point x="292" y="406"/>
      <point x="279" y="404"/>
      <point x="271" y="404" type="curve" smooth="yes"/>
      <point x="233" y="405" type="line"/>
      <point x="233" y="357" type="line"/>
      <point x="273" y="357" type="line" smooth="yes"/>
      <point x="292" y="357"/>
      <point x="312" y="354"/>
      <point x="334" y="349" type="curve" smooth="yes"/>
      <point x="355" y="343"/>
      <point x="374" y="333"/>
      <point x="391" y="320" type="curve" smooth="yes"/>
      <point x="407" y="307"/>
      <point x="420" y="290"/>
      <point x="430" y="269" type="curve" smooth="yes"/>
      <point x="440" y="247"/>
      <point x="445" y="221"/>
      <point x="445" y="190" type="curve" smooth="yes"/>
      <point x="445" y="156"/>
      <point x="433" y="127"/>
      <point x="410" y="103" type="curve" smooth="yes"/>
      <point x="386" y="79"/>
      <point x="351" y="67"/>
    </contour>
  </outline>
</glyph>
<glyph name="theta" format="2">
  <advance width="491"/>
  <unicode hex="03B8"/>
  <outline>
    <contour>
      <point x="241" y="3" type="curve" smooth="yes"/>
      <point x="275" y="3"/>
      <point x="305" y="12"/>
      <point x="330" y="32" type="curve" smooth="yes"/>
      <point x="354" y="50"/>
      <point x="375" y="76"/>
      <point x="392" y="110" type="curve" smooth="yes"/>
      <point x="407" y="142"/>
      <point x="419" y="180"/>
      <point x="427" y="224" type="curve" smooth="yes"/>
      <point x="435" y="266"/>
      <point x="439" y="312"/>
      <point x="439" y="360" type="curve" smooth="yes"/>
      <point x="439" y="409"/>
      <point x="435" y="455"/>
      <point x="427" y="498" type="curve" smooth="yes"/>
      <point x="419" y="540"/>
      <point x="407" y="577"/>
      <point x="391" y="609" type="curve" smooth="yes"/>
      <point x="375" y="641"/>
      <point x="354" y="667"/>
      <point x="330" y="685" type="curve" smooth="yes"/>
      <point x="304" y="703"/>
      <point x="275" y="712"/>
      <point x="241" y="712" type="curve" smooth="yes"/>
      <point x="207" y="712"/>
      <point x="177" y="702"/>
      <point x="152" y="683" type="curve" smooth="yes"/>
      <point x="126" y="663"/>
      <point x="106" y="637"/>
      <point x="91" y="605" type="curve" smooth="yes"/>
      <point x="74" y="572"/>
      <point x="62" y="535"/>
      <point x="55" y="493" type="curve" smooth="yes"/>
      <point x="47" y="451"/>
      <point x="43" y="406"/>
      <point x="43" y="359" type="curve" smooth="yes"/>
      <point x="43" y="308"/>
      <point x="47" y="261"/>
      <point x="55" y="219" type="curve" smooth="yes"/>
      <point x="62" y="175"/>
      <point x="74" y="138"/>
      <point x="90" y="106" type="curve" smooth="yes"/>
      <point x="106" y="73"/>
      <point x="126" y="48"/>
      <point x="152" y="30" type="curve" smooth="yes"/>
      <point x="176" y="12"/>
      <point x="206" y="3"/>
    </contour>
    <contour>
      <point x="240" y="665" type="curve" smooth="yes"/>
      <point x="263" y="665"/>
      <point x="283" y="657"/>
      <point x="301" y="642" type="curve" smooth="yes"/>
      <point x="318" y="626"/>
      <point x="332" y="605"/>
      <point x="343" y="579" type="curve" smooth="yes"/>
      <point x="354" y="553"/>
      <point x="363" y="525"/>
      <point x="369" y="493" type="curve" smooth="yes"/>
      <point x="375" y="461"/>
      <point x="378" y="423"/>
      <point x="379" y="380" type="curve"/>
      <point x="101" y="380" type="line"/>
      <point x="101" y="425"/>
      <point x="105" y="464"/>
      <point x="111" y="497" type="curve" smooth="yes"/>
      <point x="117" y="529"/>
      <point x="125" y="557"/>
      <point x="137" y="582" type="curve" smooth="yes"/>
      <point x="147" y="608"/>
      <point x="160" y="628"/>
      <point x="178" y="643" type="curve" smooth="yes"/>
      <point x="195" y="657"/>
      <point x="216" y="665"/>
    </contour>
    <contour>
      <point x="241" y="50" type="curve" smooth="yes"/>
      <point x="218" y="50"/>
      <point x="198" y="57"/>
      <point x="181" y="73" type="curve" smooth="yes"/>
      <point x="163" y="87"/>
      <point x="149" y="107"/>
      <point x="139" y="133" type="curve" smooth="yes"/>
      <point x="127" y="159"/>
      <point x="119" y="188"/>
      <point x="113" y="220" type="curve" smooth="yes"/>
      <point x="107" y="251"/>
      <point x="103" y="288"/>
      <point x="102" y="330" type="curve"/>
      <point x="379" y="330" type="line"/>
      <point x="377" y="285"/>
      <point x="374" y="247"/>
      <point x="368" y="215" type="curve" smooth="yes"/>
      <point x="362" y="183"/>
      <point x="353" y="155"/>
      <point x="342" y="131" type="curve" smooth="yes"/>
      <point x="331" y="105"/>
      <point x="317" y="86"/>
      <point x="301" y="72" type="curve" smooth="yes"/>
      <point x="283" y="57"/>
      <point x="263" y="50"/>
    </contour>
  </outline>
</glyph>
<glyph name="rho" format="2">
  <advance width="488"/>
  <unicode hex="03C1"/>
  <outline>
    <contour>
      <point x="75" y="-152" type="line"/>
      <point x="123" y="-152" type="line"/>
      <point x="123" y="102" type="line"/>
      <point x="133" y="76"/>
      <point x="151" y="53"/>
      <point x="175" y="33" type="curve" smooth="yes"/>
      <point x="198" y="13"/>
      <point x="226" y="3"/>
      <point x="260" y="3" type="curve" smooth="yes"/>
      <point x="288" y="3"/>
      <point x="313" y="9"/>
      <point x="335" y="23" type="curve" smooth="yes"/>
      <point x="355" y="36"/>
      <point x="373" y="54"/>
      <point x="389" y="76" type="curve" smooth="yes"/>
      <point x="404" y="98"/>
      <point x="416" y="124"/>
      <point x="424" y="154" type="curve" smooth="yes"/>
      <point x="431" y="184"/>
      <point x="435" y="214"/>
      <point x="435" y="246" type="curve" smooth="yes"/>
      <point x="435" y="287"/>
      <point x="430" y="324"/>
      <point x="422" y="356" type="curve" smooth="yes"/>
      <point x="412" y="388"/>
      <point x="400" y="414"/>
      <point x="384" y="436" type="curve" smooth="yes"/>
      <point x="368" y="458"/>
      <point x="350" y="474"/>
      <point x="330" y="486" type="curve" smooth="yes"/>
      <point x="309" y="496"/>
      <point x="287" y="502"/>
      <point x="264" y="502" type="curve" smooth="yes"/>
      <point x="245" y="502"/>
      <point x="225" y="499"/>
      <point x="203" y="493" type="curve" smooth="yes"/>
      <point x="181" y="486"/>
      <point x="161" y="473"/>
      <point x="143" y="453" type="curve" smooth="yes"/>
      <point x="123" y="433"/>
      <point x="107" y="403"/>
      <point x="95" y="365" type="curve" smooth="yes"/>
      <point x="81" y="325"/>
      <point x="75" y="274"/>
      <point x="75" y="210" type="curve" smooth="yes"/>
    </contour>
    <contour>
      <point x="129" y="256" type="curve" smooth="yes"/>
      <point x="129" y="325"/>
      <point x="141" y="376"/>
      <point x="166" y="409" type="curve" smooth="yes"/>
      <point x="190" y="441"/>
      <point x="220" y="458"/>
      <point x="256" y="458" type="curve" smooth="yes"/>
      <point x="276" y="458"/>
      <point x="294" y="452"/>
      <point x="310" y="440" type="curve" smooth="yes"/>
      <point x="325" y="428"/>
      <point x="338" y="412"/>
      <point x="349" y="393" type="curve" smooth="yes"/>
      <point x="359" y="374"/>
      <point x="367" y="352"/>
      <point x="372" y="327" type="curve" smooth="yes"/>
      <point x="376" y="301"/>
      <point x="379" y="274"/>
      <point x="379" y="247" type="curve" smooth="yes"/>
      <point x="379" y="197"/>
      <point x="369" y="151"/>
      <point x="350" y="110" type="curve" smooth="yes"/>
      <point x="340" y="90"/>
      <point x="328" y="75"/>
      <point x="313" y="64" type="curve" smooth="yes"/>
      <point x="297" y="52"/>
      <point x="279" y="47"/>
      <point x="258" y="47" type="curve" smooth="yes"/>
      <point x="234" y="47"/>
      <point x="213" y="54"/>
      <point x="197" y="68" type="curve" smooth="yes"/>
      <point x="180" y="82"/>
      <point x="167" y="99"/>
      <point x="157" y="121" type="curve" smooth="yes"/>
      <point x="146" y="141"/>
      <point x="139" y="163"/>
      <point x="135" y="188" type="curve" smooth="yes"/>
      <point x="131" y="212"/>
      <point x="129" y="235"/>
    </contour>
  </outline>
</glyph>
<glyph name="uni0401" format="2">
  <advance width="480"/>
  <unicode hex="0401"/>
  <outline>
    <contour>
      <point x="92" y="14" type="line"/>
      <point x="421" y="14" type="line"/>
      <point x="421" y="65" type="line"/>
      <point x="146" y="65" type="line"/>
      <point x="146" y="349" type="line"/>
      <point x="402" y="349" type="line"/>
      <point x="402" y="399" type="line"/>
      <point x="146" y="399" type="line"/>
      <point x="146" y="648" type="line"/>
      <point x="413" y="648" type="line"/>
      <point x="413" y="699" type="line"/>
      <point x="92" y="699" type="line"/>
    </contour>
    <contour>
      <point x="138" y="808" type="line"/>
      <point x="138" y="745" type="line"/>
      <point x="202" y="745" type="line"/>
      <point x="202" y="808" type="line"/>
    </contour>
    <contour>
      <point x="316" y="808" type="line"/>
      <point x="316" y="745" type="line"/>
      <point x="380" y="745" type="line"/>
      <point x="380" y="808" type="line"/>
    </contour>
  </outline>
</glyph>
<glyph name="uni0411" format="2">
  <advance width="536"/>
  <unicode hex="0411"/>
  <outline>
    <contour>
      <point x="91" y="699" type="line"/>
      <point x="91" y="14" type="line"/>
      <point x="273" y="14" type="line" smooth="yes"/>
      <point x="285" y="14"/>
      <point x="298" y="14"/>
      <point x="314" y="16" type="curve" smooth="yes"/>
      <point x="328" y="17"/>
      <point x="342" y="19"/>
      <point x="354" y="23" type="curve" smooth="yes"/>
      <point x="390" y="33"/>
      <point x="421" y="54"/>
      <point x="446" y="84" type="curve" smooth="yes"/>
      <point x="470" y="113"/>
      <point x="483" y="153"/>
      <point x="483" y="205" type="curve" smooth="yes"/>
      <point x="483" y="271"/>
      <point x="462" y="320"/>
      <point x="421" y="353" type="curve" smooth="yes"/>
      <point x="379" y="385"/>
      <point x="317" y="401"/>
      <point x="233" y="401" type="curve" smooth="yes"/>
      <point x="145" y="401" type="line"/>
      <point x="145" y="648" type="line"/>
      <point x="414" y="648" type="line"/>
      <point x="414" y="699" type="line"/>
    </contour>
    <contour>
      <point x="145" y="353" type="line"/>
      <point x="267" y="353" type="line" smooth="yes"/>
      <point x="286" y="353"/>
      <point x="305" y="350"/>
      <point x="325" y="345" type="curve" smooth="yes"/>
      <point x="343" y="339"/>
      <point x="360" y="330"/>
      <point x="375" y="318" type="curve" smooth="yes"/>
      <point x="389" y="306"/>
      <point x="402" y="291"/>
      <point x="412" y="273" type="curve" smooth="yes"/>
      <point x="421" y="254"/>
      <point x="426" y="232"/>
      <point x="427" y="207" type="curve" smooth="yes"/>
      <point x="424" y="152"/>
      <point x="407" y="114"/>
      <point x="376" y="94" type="curve" smooth="yes"/>
      <point x="344" y="73"/>
      <point x="305" y="63"/>
      <point x="258" y="63" type="curve" smooth="yes"/>
      <point x="145" y="63" type="line"/>
    </contour>
  </outline>
</glyph>
<glyph name="uni0413" format="2">
  <advance width="449"/>
  <unicode hex="0413"/>
  <outline>
    <contour>
      <point x="82" y="14" type="line"/>
      <point x="136" y="14" type="line"/>
      <point x="136" y="648" type="line"/>
      <point x="404" y="648" type="line"/>
      <point x="404" y="699" type="line"/>
      <point x="82" y="699" type="line"/>
    </contour>
  </outline>
</glyph>
<glyph name="uni0418" format="2">
  <advance width="607"/>
  <unicode hex="0418"/>
  <outline>
    <contour>
      <point x="509" y="699" type="line"/>
      <point x="431" y="699" type="line"/>
      <point x="142" y="79" type="line"/>
      <point x="142" y="699" type="line"/>
      <point x="90" y="699" type="line"/>
      <point x="90" y="14" type="line"/>
      <point x="168" y="14" type="line"/>
      <point x="457" y="632" type="line"/>
      <point x="457" y="14" type="line"/>
      <point x="509" y="14" type="line"/>
    </contour>
  </outline>
</glyph>
<glyph name="uni041F" format="2">
  <advance width="598"/>
  <unicode hex="041F"/>
  <outline>
    <contour>
      <point x="148" y="649" type="line"/>
      <point x="448" y="649" type="line"/>
      <point x="448" y="14" type="line"/>
      <point x="504" y="14" type="line"/>
      <point x="504" y="699" type="line"/>
      <point x="93" y="699" type="line"/>
      <point x="93" y="14" type="line"/>
      <point x="148" y="14" type="line"/>
    </contour>
  </outline>
</glyph>
<glyph name="uni0424" format="2">
  <advance width="678"/>
  <unicode hex="0424"/>
  <outline>
    <contour>
      <point x="305" y="615" type="line"/>
      <point x="262" y="609"/>
      <point x="226" y="599"/>
      <point x="197" y="584" type="curve" smooth="yes"/>
      <point x="167" y="568"/>
      <point x="141" y="549"/>
      <point x="121" y="527" type="curve" smooth="yes"/>
      <point x="100" y="503"/>
      <point x="84" y="478"/>
      <point x="74" y="450" type="curve" smooth="yes"/>
      <point x="62" y="421"/>
      <point x="57" y="391"/>
      <point x="57" y="360" type="curve" smooth="yes"/>
      <point x="57" y="328"/>
      <point x="62" y="298"/>
      <point x="74" y="270" type="curve" smooth="yes"/>
      <point x="84" y="240"/>
      <point x="100" y="214"/>
      <point x="121" y="191" type="curve" smooth="yes"/>
      <point x="141" y="167"/>
      <point x="167" y="148"/>
      <point x="197" y="133" type="curve" smooth="yes"/>
      <point x="226" y="117"/>
      <point x="262" y="106"/>
      <point x="305" y="102" type="curve"/>
      <point x="305" y="14" type="line"/>
      <point x="362" y="14" type="line"/>
      <point x="362" y="101" type="line"/>
      <point x="406" y="105"/>
      <point x="443" y="114"/>
      <point x="474" y="130" type="curve" smooth="yes"/>
      <point x="504" y="145"/>
      <point x="531" y="165"/>
      <point x="553" y="189" type="curve" smooth="yes"/>
      <point x="574" y="212"/>
      <point x="591" y="239"/>
      <point x="603" y="269" type="curve" smooth="yes"/>
      <point x="614" y="299"/>
      <point x="620" y="329"/>
      <point x="620" y="361" type="curve" smooth="yes"/>
      <point x="620" y="391"/>
      <point x="614" y="421"/>
      <point x="603" y="451" type="curve" smooth="yes"/>
      <point x="591" y="480"/>
      <point x="574" y="506"/>
      <point x="553" y="530" type="curve" smooth="yes"/>
      <point x="531" y="552"/>
      <point x="504" y="570"/>
      <point x="474" y="586" type="curve" smooth="yes"/>
      <point x="443" y="601"/>
      <point x="406" y="611"/>
      <point x="362" y="616" type="curve"/>
      <point x="362" y="699" type="line"/>
      <point x="305" y="699" type="line"/>
    </contour>
    <contour>
      <point x="561" y="362" type="curve" smooth="yes"/>
      <point x="561" y="306"/>
      <point x="543" y="258"/>
      <point x="509" y="219" type="curve" smooth="yes"/>
      <point x="474" y="179"/>
      <point x="425" y="155"/>
      <point x="362" y="149" type="curve"/>
      <point x="362" y="569" type="line"/>
      <point x="424" y="561"/>
      <point x="473" y="539"/>
      <point x="509" y="502" type="curve" smooth="yes"/>
      <point x="543" y="464"/>
      <point x="561" y="417"/>
    </contour>
    <contour>
      <point x="115" y="361" type="curve" smooth="yes"/>
      <point x="115" y="415"/>
      <point x="131" y="461"/>
      <point x="164" y="499" type="curve" smooth="yes"/>
      <point x="196" y="535"/>
      <point x="243" y="558"/>
      <point x="305" y="568" type="curve"/>
      <point x="305" y="150" type="line"/>
      <point x="244" y="159"/>
      <point x="197" y="183"/>
      <point x="165" y="221" type="curve" smooth="yes"/>
      <point x="131" y="259"/>
      <point x="115" y="305"/>
    </contour>
  </outline>
</glyph>
<glyph name="uni0425" format="2">
  <advance width="542"/>
  <unicode hex="0425"/>
  <outline>
    <contour>
      <point x="41" y="14" type="line"/>
      <point x="98" y="14" type="line"/>
      <point x="270" y="318" type="line"/>
      <point x="442" y="14" type="line"/>
      <point x="500" y="14" type="line"/>
      <point x="299" y="374" type="line"/>
      <point x="480" y="699" type="line"/>
      <point x="421" y="699" type="line"/>
      <point x="270" y="429" type="line"/>
      <point x="117" y="699" type="line"/>
      <point x="59" y="699" type="line"/>
      <point x="241" y="374" type="line"/>
    </contour>
  </outline>
</glyph>
<glyph name="uni0430" format="2">
  <advance width="466"/>
  <unicode hex="0430"/>
  <outline>
    <contour>
      <point x="338" y="14" type="line"/>
      <point x="389" y="14" type="line"/>
      <point x="389" y="345" type="line" smooth="yes"/>
      <point x="389" y="389"/>
      <point x="376" y="427"/>
      <point x="352" y="457" type="curve" smooth="yes"/>
      <point x="327" y="487"/>
      <point x="288" y="502"/>
      <point x="235" y="502" type="curve" smooth="yes"/>
      <point x="208" y="502"/>
      <point x="185" y="498"/>
      <point x="165" y="490" type="curve" smooth="yes"/>
      <point x="145" y="482"/>
      <point x="128" y="471"/>
      <point x="114" y="459" type="curve" smooth="yes"/>
      <point x="101" y="446"/>
      <point x="92" y="432"/>
      <point x="86" y="417" type="curve" smooth="yes"/>
      <point x="79" y="401"/>
      <point x="76" y="389"/>
      <point x="76" y="379" type="curve"/>
      <point x="138" y="379" type="line"/>
      <point x="138" y="399"/>
      <point x="146" y="418"/>
      <point x="164" y="435" type="curve" smooth="yes"/>
      <point x="181" y="451"/>
      <point x="205" y="459"/>
      <point x="235" y="459" type="curve" smooth="yes"/>
      <point x="258" y="459"/>
      <point x="277" y="454"/>
      <point x="291" y="446" type="curve" smooth="yes"/>
      <point x="305" y="436"/>
      <point x="315" y="425"/>
      <point x="322" y="413" type="curve" smooth="yes"/>
      <point x="329" y="401"/>
      <point x="334" y="387"/>
      <point x="336" y="372" type="curve" smooth="yes"/>
      <point x="337" y="356"/>
      <point x="338" y="346"/>
      <point x="338" y="341" type="curve" smooth="yes"/>
      <point x="338" y="283" type="line"/>
      <point x="326" y="283"/>
      <point x="314" y="283"/>
      <point x="302" y="284" type="curve" smooth="yes"/>
      <point x="290" y="284"/>
      <point x="276" y="283"/>
      <point x="261" y="283" type="curve" smooth="yes"/>
      <point x="245" y="282"/>
      <point x="229" y="280"/>
      <point x="212" y="278" type="curve" smooth="yes"/>
      <point x="194" y="275"/>
      <point x="177" y="271"/>
      <point x="161" y="265" type="curve" smooth="yes"/>
      <point x="134" y="256"/>
      <point x="111" y="239"/>
      <point x="93" y="214" type="curve" smooth="yes"/>
      <point x="74" y="188"/>
      <point x="65" y="158"/>
      <point x="65" y="124" type="curve" smooth="yes"/>
      <point x="65" y="105"/>
      <point x="68" y="88"/>
      <point x="75" y="73" type="curve" smooth="yes"/>
      <point x="81" y="57"/>
      <point x="90" y="45"/>
      <point x="100" y="35" type="curve" smooth="yes"/>
      <point x="110" y="24"/>
      <point x="123" y="16"/>
      <point x="137" y="11" type="curve" smooth="yes"/>
      <point x="150" y="5"/>
      <point x="164" y="3"/>
      <point x="178" y="3" type="curve" smooth="yes"/>
      <point x="199" y="3"/>
      <point x="218" y="5"/>
      <point x="235" y="10" type="curve" smooth="yes"/>
      <point x="251" y="14"/>
      <point x="266" y="20"/>
      <point x="279" y="28" type="curve" smooth="yes"/>
      <point x="308" y="46"/>
      <point x="328" y="65"/>
      <point x="338" y="85" type="curve"/>
    </contour>
    <contour>
      <point x="338" y="191" type="line" smooth="yes"/>
      <point x="338" y="177"/>
      <point x="335" y="158"/>
      <point x="330" y="134" type="curve" smooth="yes"/>
      <point x="322" y="110"/>
      <point x="303" y="89"/>
      <point x="275" y="70" type="curve" smooth="yes"/>
      <point x="251" y="54"/>
      <point x="229" y="46"/>
      <point x="210" y="46" type="curve" smooth="yes"/>
      <point x="188" y="46"/>
      <point x="167" y="52"/>
      <point x="149" y="64" type="curve" smooth="yes"/>
      <point x="130" y="76"/>
      <point x="121" y="99"/>
      <point x="121" y="134" type="curve" smooth="yes"/>
      <point x="121" y="149"/>
      <point x="124" y="163"/>
      <point x="130" y="176" type="curve" smooth="yes"/>
      <point x="135" y="188"/>
      <point x="142" y="198"/>
      <point x="152" y="207" type="curve" smooth="yes"/>
      <point x="161" y="215"/>
      <point x="171" y="222"/>
      <point x="183" y="228" type="curve" smooth="yes"/>
      <point x="193" y="233"/>
      <point x="204" y="237"/>
      <point x="215" y="240" type="curve" smooth="yes"/>
      <point x="236" y="245"/>
      <point x="257" y="248"/>
      <point x="277" y="249" type="curve" smooth="yes"/>
      <point x="297" y="249"/>
      <point x="317" y="248"/>
      <point x="338" y="248" type="curve"/>
    </contour>
  </outline>
</glyph>
<glyph name="uni0434" format="2">
  <advance width="490"/>
  <unicode hex="0434"/>
  <outline>
    <contour>
      <point x="388" y="490" type="line"/>
      <point x="146" y="490" type="line"/>
      <point x="146" y="422"/>
      <point x="142" y="353"/>
      <point x="135" y="281" type="curve" smooth="yes"/>
      <point x="127" y="208"/>
      <point x="115" y="133"/>
      <point x="99" y="57" type="curve"/>
      <point x="41" y="57" type="line"/>
      <point x="41" y="-53" type="line"/>
      <point x="86" y="-53" type="line"/>
      <point x="86" y="14" type="line"/>
      <point x="404" y="14" type="line"/>
      <point x="404" y="-53" type="line"/>
      <point x="448" y="-53" type="line"/>
      <point x="448" y="57" type="line"/>
      <point x="388" y="57" type="line"/>
    </contour>
    <contour>
      <point x="146" y="57" type="line"/>
      <point x="160" y="123"/>
      <point x="171" y="188"/>
      <point x="179" y="251" type="curve" smooth="yes"/>
      <point x="185" y="313"/>
      <point x="189" y="378"/>
      <point x="191" y="447" type="curve"/>
      <point x="342" y="447" type="line"/>
      <point x="342" y="57" type="line"/>
    </contour>
  </outline>
</glyph>
<glyph name="uni043A" format="2">
  <advance width="436"/>
  <unicode hex="043A"/>
  <outline>
    <contour>
      <point x="68" y="14" type="line"/>
      <point x="113" y="14" type="line"/>
      <point x="113" y="237" type="line"/>
      <point x="323" y="14" type="line"/>
      <point x="392" y="14" type="line"/>
      <point x="158" y="267" type="line"/>
      <point x="366" y="490" type="line"/>
      <point x="305" y="490" type="line"/>
      <point x="113" y="288" type="line"/>
      <point x="113" y="490" type="line"/>
      <point x="68" y="490" type="line"/>
    </contour>
  </outline>
</glyph>
<glyph name="uni043D" format="2">
  <advance width="462"/>
  <unicode hex="043D"/>
  <outline>
    <contour>
      <point x="74" y="14" type="line"/>
      <point x="119" y="14" type="line"/>
      <point x="119" y="240" type="line"/>
      <point x="342" y="240" type="line"/>
      <point x="342" y="14" type="line"/>
      <point x="388" y="14" type="line"/>
      <point x="388" y="490" type="line"/>
      <point x="342" y="490" type="line"/>
      <point x="342" y="283" type="line"/>
      <point x="119" y="283" type="line"/>
      <point x="119" y="490" type="line"/>
      <point x="74" y="490" type="line"/>
    </contour>
  </outline>
</glyph>
<glyph name="uni043F" format="2">
  <advance width="462"/>
  <unicode hex="043F"/>
  <outline>
    <contour>
      <point x="118" y="447" type="line"/>
      <point x="341" y="447" type="line"/>
      <point x="341" y="14" type="line"/>
      <point x="387" y="14" type="line"/>
      <point x="387" y="490" type="line"/>
      <point x="73" y="490" type="line"/>
      <point x="73" y="14" type="line"/>
      <point x="118" y="14" type="line"/>
    </contour>
  </outline>
</glyph>
<glyph name="uni0440" format="2">
  <advance width="488"/>
  <unicode hex="0440"/>
  <outline>
    <contour>
      <point x="75" y="-152" type="line"/>
      <point x="123" y="-152" type="line"/>
      <point x="123" y="137" type="line"/>
      <point x="136" y="90"/>
      <point x="154" y="57"/>
      <point x="177" y="37" type="curve" smooth="yes"/>
      <point x="199" y="16"/>
      <point x="226" y="6"/>
      <point x="260" y="6" type="curve" smooth="yes"/>
      <point x="288" y="6"/>
      <point x="313" y="12"/>
      <point x="335" y="26" type="curve" smooth="yes"/>
      <point x="355" y="39"/>
      <point x="373" y="57"/>
      <point x="389" y="79" type="curve" smooth="yes"/>
      <point x="404" y="101"/>
      <point x="416" y="126"/>
      <point x="424" y="156" type="curve" smooth="yes"/>
      <point x="431" y="185"/>
      <point x="435" y="215"/>
      <point x="435" y="247" type="curve" smooth="yes"/>
      <point x="435" y="288"/>
      <point x="430" y="325"/>
      <point x="422" y="357" type="curve" smooth="yes"/>
      <point x="412" y="388"/>
      <point x="400" y="414"/>
      <point x="384" y="436" type="curve" smooth="yes"/>
      <point x="368" y="458"/>
      <point x="350" y="474"/>
      <point x="330" y="486" type="curve" smooth="yes"/>
      <point x="309" y="496"/>
      <point x="287" y="502"/>
      <point x="264" y="502" type="curve" smooth="yes"/>
      <point x="232" y="501"/>
      <point x="204" y="490"/>
      <point x="179" y="469" type="curve" smooth="yes"/>
      <point x="153" y="447"/>
      <point x="134" y="412"/>
      <point x="123" y="365" type="curve"/>
      <point x="123" y="490" type="line"/>
      <point x="75" y="490" type="line"/>
    </contour>
    <contour>
      <point x="129" y="257" type="curve" smooth="yes"/>
      <point x="129" y="316"/>
      <point x="141" y="364"/>
      <point x="166" y="402" type="curve" smooth="yes"/>
      <point x="190" y="439"/>
      <point x="220" y="458"/>
      <point x="256" y="458" type="curve" smooth="yes"/>
      <point x="276" y="458"/>
      <point x="294" y="452"/>
      <point x="310" y="440" type="curve" smooth="yes"/>
      <point x="325" y="428"/>
      <point x="338" y="412"/>
      <point x="349" y="393" type="curve" smooth="yes"/>
      <point x="359" y="374"/>
      <point x="367" y="352"/>
      <point x="372" y="327" type="curve" smooth="yes"/>
      <point x="376" y="301"/>
      <point x="379" y="275"/>
      <point x="379" y="248" type="curve" smooth="yes"/>
      <point x="379" y="222"/>
      <point x="376" y="198"/>
      <point x="372" y="175" type="curve" smooth="yes"/>
      <point x="367" y="151"/>
      <point x="360" y="130"/>
      <point x="350" y="112" type="curve" smooth="yes"/>
      <point x="340" y="93"/>
      <point x="328" y="78"/>
      <point x="313" y="67" type="curve" smooth="yes"/>
      <point x="297" y="55"/>
      <point x="279" y="50"/>
      <point x="258" y="50" type="curve" smooth="yes"/>
      <point x="234" y="50"/>
      <point x="213" y="57"/>
      <point x="197" y="71" type="curve" smooth="yes"/>
      <point x="180" y="85"/>
      <point x="167" y="102"/>
      <point x="157" y="124" type="curve" smooth="yes"/>
      <point x="146" y="144"/>
      <point x="139" y="166"/>
      <point x="135" y="190" type="curve" smooth="yes"/>
      <point x="131" y="214"/>
      <point x="129" y="236"/>
    </contour>
  </outline>
</glyph>
<glyph name="uni0447" format="2">
  <advance width="478"/>
  <unicode hex="0447"/>
  <outline>
    <contour>
      <point x="400" y="490" type="line"/>
      <point x="354" y="490" type="line"/>
      <point x="354" y="365" type="line" smooth="yes"/>
      <point x="354" y="357"/>
      <point x="353" y="348"/>
      <point x="353" y="340" type="curve" smooth="yes"/>
      <point x="351" y="331"/>
      <point x="350" y="322"/>
      <point x="349" y="314" type="curve" smooth="yes"/>
      <point x="339" y="278"/>
      <point x="321" y="251"/>
      <point x="296" y="233" type="curve" smooth="yes"/>
      <point x="270" y="214"/>
      <point x="243" y="205"/>
      <point x="217" y="205" type="curve" smooth="yes"/>
      <point x="186" y="205"/>
      <point x="163" y="214"/>
      <point x="147" y="233" type="curve" smooth="yes"/>
      <point x="130" y="251"/>
      <point x="122" y="278"/>
      <point x="122" y="314" type="curve" smooth="yes"/>
      <point x="122" y="490" type="line"/>
      <point x="77" y="490" type="line"/>
      <point x="77" y="296" type="line" smooth="yes"/>
      <point x="77" y="274"/>
      <point x="81" y="254"/>
      <point x="89" y="238" type="curve" smooth="yes"/>
      <point x="97" y="220"/>
      <point x="107" y="206"/>
      <point x="120" y="194" type="curve" smooth="yes"/>
      <point x="132" y="182"/>
      <point x="146" y="173"/>
      <point x="162" y="167" type="curve" smooth="yes"/>
      <point x="177" y="161"/>
      <point x="193" y="158"/>
      <point x="209" y="158" type="curve" smooth="yes"/>
      <point x="226" y="158"/>
      <point x="242" y="161"/>
      <point x="257" y="167" type="curve" smooth="yes"/>
      <point x="271" y="172"/>
      <point x="284" y="179"/>
      <point x="296" y="187" type="curve" smooth="yes"/>
      <point x="307" y="196"/>
      <point x="317" y="205"/>
      <point x="325" y="215" type="curve" smooth="yes"/>
      <point x="332" y="224"/>
      <point x="342" y="240"/>
      <point x="354" y="262" type="curve"/>
      <point x="354" y="14" type="line"/>
      <point x="400" y="14" type="line"/>
    </contour>
  </outline>
</glyph>
<glyph name="uni0449" format="2">
  <advance width="582"/>
  <unicode hex="0449"/>
  <outline>
    <contour>
      <point x="477" y="490" type="line"/>
      <point x="431" y="490" type="line"/>
      <point x="431" y="57" type="line"/>
      <point x="292" y="57" type="line"/>
      <point x="292" y="490" type="line"/>
      <point x="246" y="490" type="line"/>
      <point x="246" y="57" type="line"/>
      <point x="99" y="57" type="line"/>
      <point x="99" y="490" type="line"/>
      <point x="54" y="490" type="line"/>
      <point x="54" y="14" type="line"/>
      <point x="493" y="14" type="line"/>
      <point x="493" y="-52" type="line"/>
      <point x="538" y="-52" type="line"/>
      <point x="538" y="57" type="line"/>
      <point x="477" y="57" type="line"/>
    </contour>
  </outline>
</glyph>
<glyph name="uni0451" format="2">
  <advance width="480"/>
  <unicode hex="0451"/>
  <outline>
    <contour>
      <point x="115" y="648" type="line"/>
      <point x="115" y="565" type="line"/>
      <point x="188" y="565" type="line"/>
      <point x="188" y="648" type="line"/>
    </contour>
    <contour>
      <point x="303" y="648" type="line"/>
      <point x="303" y="565" type="line"/>
      <point x="377" y="565" type="line"/>
      <point x="377" y="648" type="line"/>
    </contour>
    <contour>
      <point x="408" y="59" type="line"/>
      <point x="394" y="54"/>
      <point x="378" y="51"/>
      <point x="360" y="49" type="curve" smooth="yes"/>
      <point x="341" y="47"/>
      <point x="328" y="46"/>
      <point x="321" y="46" type="curve" smooth="yes"/>
      <point x="302" y="46"/>
      <point x="281" y="48"/>
      <point x="258" y="52" type="curve" smooth="yes"/>
      <point x="234" y="55"/>
      <point x="216" y="60"/>
      <point x="205" y="68" type="curve" smooth="yes"/>
      <point x="169" y="88"/>
      <point x="145" y="114"/>
      <point x="132" y="146" type="curve" smooth="yes"/>
      <point x="118" y="177"/>
      <point x="109" y="213"/>
      <point x="106" y="253" type="curve"/>
      <point x="422" y="253" type="line"/>
      <point x="422" y="279" type="line" smooth="yes"/>
      <point x="422" y="303"/>
      <point x="419" y="328"/>
      <point x="415" y="354" type="curve" smooth="yes"/>
      <point x="410" y="380"/>
      <point x="402" y="403"/>
      <point x="391" y="425" type="curve" smooth="yes"/>
      <point x="376" y="449"/>
      <point x="357" y="468"/>
      <point x="335" y="482" type="curve" smooth="yes"/>
      <point x="311" y="495"/>
      <point x="285" y="502"/>
      <point x="257" y="502" type="curve" smooth="yes"/>
      <point x="192" y="502"/>
      <point x="142" y="479"/>
      <point x="106" y="435" type="curve" smooth="yes"/>
      <point x="70" y="390"/>
      <point x="52" y="333"/>
      <point x="52" y="263" type="curve" smooth="yes"/>
      <point x="52" y="219"/>
      <point x="58" y="181"/>
      <point x="71" y="149" type="curve" smooth="yes"/>
      <point x="83" y="115"/>
      <point x="99" y="88"/>
      <point x="118" y="67" type="curve" smooth="yes"/>
      <point x="137" y="45"/>
      <point x="163" y="29"/>
      <point x="196" y="19" type="curve" smooth="yes"/>
      <point x="228" y="8"/>
      <point x="264" y="3"/>
      <point x="302" y="3" type="curve" smooth="yes"/>
      <point x="322" y="3"/>
      <point x="341" y="4"/>
      <point x="361" y="8" type="curve" smooth="yes"/>
      <point x="379" y="11"/>
      <point x="395" y="15"/>
      <point x="408" y="20" type="curve"/>
    </contour>
    <contour>
      <point x="347" y="403" type="curve" smooth="yes"/>
      <point x="355" y="387"/>
      <point x="361" y="370"/>
      <point x="363" y="352" type="curve" smooth="yes"/>
      <point x="364" y="333"/>
      <point x="365" y="314"/>
      <point x="365" y="295" type="curve"/>
      <point x="106" y="295" type="line"/>
      <point x="110" y="349"/>
      <point x="126" y="390"/>
      <point x="154" y="418" type="curve" smooth="yes"/>
      <point x="181" y="445"/>
      <point x="214" y="459"/>
      <point x="254" y="459" type="curve" smooth="yes"/>
      <point x="274" y="459"/>
      <point x="291" y="454"/>
      <point x="307" y="445" type="curve" smooth="yes"/>
      <point x="322" y="435"/>
      <point x="335" y="421"/>
    </contour>
  </outline>
</glyph>
